<mxfile host="app.diagrams.net" modified="2024-03-14T13:50:00.537Z" agent="Mozilla/5.0 (X11; Linux x86_64) AppleWebKit/537.36 (KHTML, like Gecko) Chrome/122.0.0.0 Safari/537.36" etag="0elYU-h31kVf8MoYXy4E" version="24.0.6" type="google">
  <diagram name="Page-1" id="ZEiD5DHx4nauXvx1cK5K">
    <mxGraphModel grid="1" page="1" gridSize="10" guides="1" tooltips="1" connect="1" arrows="1" fold="1" pageScale="1" pageWidth="827" pageHeight="1169" math="0" shadow="0">
      <root>
        <mxCell id="0" />
        <mxCell id="1" parent="0" />
        <mxCell id="oLGlpNgKoRY46IaJrlE8-258" value="" style="rounded=0;whiteSpace=wrap;html=1;" vertex="1" parent="1">
          <mxGeometry x="-30" y="340" width="1260" height="2880" as="geometry" />
        </mxCell>
        <mxCell id="oLGlpNgKoRY46IaJrlE8-34" value="&amp;nbsp; &amp;nbsp; &amp;nbsp; Logo / App name" style="html=1;shadow=0;dashed=0;fillColor=#000E17;strokeColor=default;fontSize=16;fontColor=#ffffff;align=left;spacing=15;" vertex="1" parent="1">
          <mxGeometry x="60" y="380" width="770" height="60" as="geometry" />
        </mxCell>
        <mxCell id="oLGlpNgKoRY46IaJrlE8-38" value="" style="shape=image;html=1;verticalAlign=top;verticalLabelPosition=bottom;labelBackgroundColor=#ffffff;imageAspect=0;aspect=fixed;image=https://cdn3.iconfinder.com/data/icons/essential-rounded/64/Rounded-31-128.png" vertex="1" parent="oLGlpNgKoRY46IaJrlE8-34">
          <mxGeometry x="620" y="9.73" width="40.54" height="40.54" as="geometry" />
        </mxCell>
        <mxCell id="oLGlpNgKoRY46IaJrlE8-39" value="&lt;font color=&quot;#ffffff&quot;&gt;Username&lt;/font&gt;" style="text;html=1;align=center;verticalAlign=middle;whiteSpace=wrap;rounded=0;" vertex="1" parent="oLGlpNgKoRY46IaJrlE8-34">
          <mxGeometry x="680.0012372304199" y="18.75" width="52.440408626560725" height="22.5" as="geometry" />
        </mxCell>
        <mxCell id="oLGlpNgKoRY46IaJrlE8-43" value="" style="group" connectable="0" vertex="1" parent="1">
          <mxGeometry x="20" y="559" width="881" height="2110.38" as="geometry" />
        </mxCell>
        <mxCell id="oLGlpNgKoRY46IaJrlE8-8" value="" style="rounded=0;whiteSpace=wrap;html=1;strokeColor=default;gradientColor=default;fillColor=#000000;" vertex="1" parent="oLGlpNgKoRY46IaJrlE8-43">
          <mxGeometry y="70.72" width="881" height="449.28" as="geometry" />
        </mxCell>
        <mxCell id="oLGlpNgKoRY46IaJrlE8-1" value="&amp;nbsp; &amp;nbsp; &amp;nbsp; Logo / App name" style="html=1;shadow=0;dashed=0;fillColor=#000E17;strokeColor=default;fontSize=16;fontColor=#ffffff;align=left;spacing=15;" vertex="1" parent="oLGlpNgKoRY46IaJrlE8-43">
          <mxGeometry width="881" height="70.72463768115944" as="geometry" />
        </mxCell>
        <mxCell id="oLGlpNgKoRY46IaJrlE8-6" value="Login" style="html=1;shadow=0;dashed=0;shape=mxgraph.bootstrap.rrect;rSize=5;fontSize=14;fontColor=#ffffff;strokeColor=#FFFFFF;fillColor=none;" vertex="1" parent="oLGlpNgKoRY46IaJrlE8-43">
          <mxGeometry x="1" width="70" height="40" relative="1" as="geometry">
            <mxPoint x="-91" y="15" as="offset" />
          </mxGeometry>
        </mxCell>
        <mxCell id="oLGlpNgKoRY46IaJrlE8-64" value="" style="group" connectable="0" vertex="1" parent="oLGlpNgKoRY46IaJrlE8-43">
          <mxGeometry x="280" y="121" width="250" height="320" as="geometry" />
        </mxCell>
        <mxCell id="oLGlpNgKoRY46IaJrlE8-52" value="Exercise" style="shape=rect;rounded=1;whiteSpace=wrap;html=1;shadow=0;strokeColor=none;fillColor=#001929;arcSize=30;fontSize=14;spacingLeft=42;fontStyle=1;fontColor=#FFFFFF;align=left;" vertex="1" parent="oLGlpNgKoRY46IaJrlE8-64">
          <mxGeometry x="30" y="10" width="220" height="40" as="geometry" />
        </mxCell>
        <mxCell id="oLGlpNgKoRY46IaJrlE8-53" value="1" style="shape=ellipse;perimeter=ellipsePerimeter;fontSize=22;fontStyle=1;shadow=0;strokeColor=#ffffff;fillColor=#003557;strokeWidth=4;fontColor=#ffffff;align=center;whiteSpace=wrap;html=1;" vertex="1" parent="oLGlpNgKoRY46IaJrlE8-64">
          <mxGeometry width="60" height="60" as="geometry" />
        </mxCell>
        <mxCell id="oLGlpNgKoRY46IaJrlE8-54" value="Exercise" style="shape=rect;rounded=1;whiteSpace=wrap;html=1;shadow=0;strokeColor=none;fillColor=#001929;arcSize=30;fontSize=14;spacingLeft=42;fontStyle=1;fontColor=#FFFFFF;align=left;" vertex="1" parent="oLGlpNgKoRY46IaJrlE8-64">
          <mxGeometry x="30" y="75" width="220" height="40" as="geometry" />
        </mxCell>
        <mxCell id="oLGlpNgKoRY46IaJrlE8-55" value="2" style="shape=ellipse;perimeter=ellipsePerimeter;fontSize=22;fontStyle=1;shadow=0;strokeColor=#ffffff;fillColor=#003557;strokeWidth=4;fontColor=#ffffff;align=center;whiteSpace=wrap;html=1;" vertex="1" parent="oLGlpNgKoRY46IaJrlE8-64">
          <mxGeometry y="65" width="60" height="60" as="geometry" />
        </mxCell>
        <mxCell id="oLGlpNgKoRY46IaJrlE8-56" value="Exercise" style="shape=rect;rounded=1;whiteSpace=wrap;html=1;shadow=0;strokeColor=none;fillColor=#001929;arcSize=30;fontSize=14;spacingLeft=42;fontStyle=1;fontColor=#FFFFFF;align=left;" vertex="1" parent="oLGlpNgKoRY46IaJrlE8-64">
          <mxGeometry x="30" y="140" width="220" height="40" as="geometry" />
        </mxCell>
        <mxCell id="oLGlpNgKoRY46IaJrlE8-57" value="3" style="shape=ellipse;perimeter=ellipsePerimeter;fontSize=22;fontStyle=1;shadow=0;strokeColor=#ffffff;fillColor=#003557;strokeWidth=4;fontColor=#ffffff;align=center;whiteSpace=wrap;html=1;" vertex="1" parent="oLGlpNgKoRY46IaJrlE8-64">
          <mxGeometry y="130" width="60" height="60" as="geometry" />
        </mxCell>
        <mxCell id="oLGlpNgKoRY46IaJrlE8-58" value="Exercise" style="shape=rect;rounded=1;whiteSpace=wrap;html=1;shadow=0;strokeColor=none;fillColor=#001929;arcSize=30;fontSize=14;spacingLeft=42;fontStyle=1;fontColor=#FFFFFF;align=left;" vertex="1" parent="oLGlpNgKoRY46IaJrlE8-64">
          <mxGeometry x="30" y="205" width="220" height="40" as="geometry" />
        </mxCell>
        <mxCell id="oLGlpNgKoRY46IaJrlE8-59" value="4" style="shape=ellipse;perimeter=ellipsePerimeter;fontSize=22;fontStyle=1;shadow=0;strokeColor=#ffffff;fillColor=#003557;strokeWidth=4;fontColor=#ffffff;align=center;whiteSpace=wrap;html=1;" vertex="1" parent="oLGlpNgKoRY46IaJrlE8-64">
          <mxGeometry y="195" width="60" height="60" as="geometry" />
        </mxCell>
        <mxCell id="oLGlpNgKoRY46IaJrlE8-60" value="Exercise" style="shape=rect;rounded=1;whiteSpace=wrap;html=1;shadow=0;strokeColor=none;fillColor=#001929;arcSize=30;fontSize=14;spacingLeft=42;fontStyle=1;fontColor=#FFFFFF;align=left;" vertex="1" parent="oLGlpNgKoRY46IaJrlE8-64">
          <mxGeometry x="30" y="270" width="220" height="40" as="geometry" />
        </mxCell>
        <mxCell id="oLGlpNgKoRY46IaJrlE8-61" value="5" style="shape=ellipse;perimeter=ellipsePerimeter;fontSize=22;fontStyle=1;shadow=0;strokeColor=#ffffff;fillColor=#003557;strokeWidth=4;fontColor=#ffffff;align=center;whiteSpace=wrap;html=1;" vertex="1" parent="oLGlpNgKoRY46IaJrlE8-64">
          <mxGeometry y="260" width="60" height="60" as="geometry" />
        </mxCell>
        <mxCell id="oLGlpNgKoRY46IaJrlE8-87" value="Exercise" style="shape=rect;rounded=1;whiteSpace=wrap;html=1;shadow=0;strokeColor=none;fillColor=#001929;arcSize=30;fontSize=14;spacingLeft=42;fontStyle=1;fontColor=#FFFFFF;align=left;" vertex="1" parent="oLGlpNgKoRY46IaJrlE8-43">
          <mxGeometry x="310" y="456" width="220" height="40" as="geometry" />
        </mxCell>
        <mxCell id="oLGlpNgKoRY46IaJrlE8-88" value="6" style="shape=ellipse;perimeter=ellipsePerimeter;fontSize=22;fontStyle=1;shadow=0;strokeColor=#ffffff;fillColor=#003557;strokeWidth=4;fontColor=#ffffff;align=center;whiteSpace=wrap;html=1;" vertex="1" parent="oLGlpNgKoRY46IaJrlE8-43">
          <mxGeometry x="280" y="446" width="60" height="60" as="geometry" />
        </mxCell>
        <mxCell id="oLGlpNgKoRY46IaJrlE8-44" value="" style="group" connectable="0" vertex="1" parent="oLGlpNgKoRY46IaJrlE8-43">
          <mxGeometry x="5" y="571" width="830" height="1539.38" as="geometry" />
        </mxCell>
        <mxCell id="oLGlpNgKoRY46IaJrlE8-45" value="" style="rounded=0;whiteSpace=wrap;html=1;strokeColor=default;gradientColor=default;fillColor=#000000;" vertex="1" parent="oLGlpNgKoRY46IaJrlE8-44">
          <mxGeometry y="66.09" width="830" height="573.91" as="geometry" />
        </mxCell>
        <mxCell id="oLGlpNgKoRY46IaJrlE8-169" style="edgeStyle=orthogonalEdgeStyle;rounded=0;orthogonalLoop=1;jettySize=auto;html=1;exitX=0.25;exitY=1;exitDx=0;exitDy=0;" edge="1" parent="oLGlpNgKoRY46IaJrlE8-44" source="oLGlpNgKoRY46IaJrlE8-103">
          <mxGeometry relative="1" as="geometry">
            <mxPoint x="410.11764705882365" y="739.9999999999995" as="targetPoint" />
          </mxGeometry>
        </mxCell>
        <mxCell id="oLGlpNgKoRY46IaJrlE8-103" value="" style="rounded=0;whiteSpace=wrap;html=1;fillColor=#0A0A0A;" vertex="1" parent="oLGlpNgKoRY46IaJrlE8-44">
          <mxGeometry x="270" y="130.62" width="560" height="509.38" as="geometry" />
        </mxCell>
        <mxCell id="oLGlpNgKoRY46IaJrlE8-48" value="&amp;nbsp; &amp;nbsp; &amp;nbsp; Logo / App name" style="html=1;shadow=0;dashed=0;fillColor=#000E17;strokeColor=default;fontSize=16;fontColor=#ffffff;align=left;spacing=15;" vertex="1" parent="oLGlpNgKoRY46IaJrlE8-44">
          <mxGeometry y="66.08773584905666" width="830" height="64.52830188679245" as="geometry" />
        </mxCell>
        <mxCell id="oLGlpNgKoRY46IaJrlE8-49" value="" style="shape=image;html=1;verticalAlign=top;verticalLabelPosition=bottom;labelBackgroundColor=#ffffff;imageAspect=0;aspect=fixed;image=https://cdn3.iconfinder.com/data/icons/essential-rounded/64/Rounded-31-128.png" vertex="1" parent="oLGlpNgKoRY46IaJrlE8-48">
          <mxGeometry x="668.3116883116883" y="10.464339622641509" width="38.12690476190476" height="38.12690476190476" as="geometry" />
        </mxCell>
        <mxCell id="oLGlpNgKoRY46IaJrlE8-50" value="&lt;font color=&quot;#ffffff&quot;&gt;Username&lt;/font&gt;" style="text;html=1;align=center;verticalAlign=middle;whiteSpace=wrap;rounded=0;" vertex="1" parent="oLGlpNgKoRY46IaJrlE8-48">
          <mxGeometry x="732.9883466249979" y="20.16509433962264" width="56.52667423382519" height="24.19811320754717" as="geometry" />
        </mxCell>
        <mxCell id="oLGlpNgKoRY46IaJrlE8-101" value="&lt;span style=&quot;font-family: sans-serif;&quot;&gt;&lt;font style=&quot;font-size: 20px;&quot; color=&quot;#f0f8ff&quot;&gt;Exercise name&lt;/font&gt;&lt;/span&gt;" style="text;html=1;align=left;verticalAlign=middle;whiteSpace=wrap;rounded=0;" vertex="1" parent="oLGlpNgKoRY46IaJrlE8-44">
          <mxGeometry x="50" y="160" width="210" height="30" as="geometry" />
        </mxCell>
        <mxCell id="oLGlpNgKoRY46IaJrlE8-104" value="" style="group" connectable="0" vertex="1" parent="oLGlpNgKoRY46IaJrlE8-44">
          <mxGeometry x="380" y="181" width="275.25" height="403" as="geometry" />
        </mxCell>
        <mxCell id="oLGlpNgKoRY46IaJrlE8-97" value="" style="rounded=1;whiteSpace=wrap;html=1;fillColor=#000000;strokeColor=#FFFFFF;" vertex="1" parent="oLGlpNgKoRY46IaJrlE8-104">
          <mxGeometry x="5.25" y="-2" width="270" height="260" as="geometry" />
        </mxCell>
        <mxCell id="oLGlpNgKoRY46IaJrlE8-94" value="upload" style="html=1;shadow=0;dashed=0;shape=mxgraph.bootstrap.rrect;rSize=5;strokeColor=none;strokeWidth=1;fillColor=#6C767D;fontColor=#FFFFFF;whiteSpace=wrap;align=center;verticalAlign=middle;spacingLeft=0;fontStyle=0;fontSize=16;spacing=5;" vertex="1" parent="oLGlpNgKoRY46IaJrlE8-104">
          <mxGeometry x="162.97316455696205" y="330" width="94.55696202531647" height="30" as="geometry" />
        </mxCell>
        <mxCell id="oLGlpNgKoRY46IaJrlE8-102" value="Take a picture" style="html=1;shadow=0;dashed=0;shape=mxgraph.bootstrap.rrect;rSize=5;strokeColor=none;strokeWidth=1;fillColor=#6C767D;fontColor=#FFFFFF;whiteSpace=wrap;align=center;verticalAlign=middle;spacingLeft=0;fontStyle=0;fontSize=16;spacing=5;" vertex="1" parent="oLGlpNgKoRY46IaJrlE8-104">
          <mxGeometry x="142.78000000000003" y="290" width="114.75" height="30" as="geometry" />
        </mxCell>
        <mxCell id="oLGlpNgKoRY46IaJrlE8-142" value="" style="group" connectable="0" vertex="1" parent="oLGlpNgKoRY46IaJrlE8-104">
          <mxGeometry x="125.00000000000001" y="379" width="130" height="33" as="geometry" />
        </mxCell>
        <mxCell id="oLGlpNgKoRY46IaJrlE8-140" value="Submit" style="rounded=1;fillColor=#0057D8;strokeColor=none;fontColor=#ffffff;align=center;verticalAlign=middle;fontStyle=0;fontSize=14;html=1;shadow=0;dashed=0;sketch=0;hachureGap=4;pointerEvents=0;fontFamily=Architects Daughter;fontSource=https%3A%2F%2Ffonts.googleapis.com%2Fcss%3Ffamily%3DArchitects%2BDaughter;" vertex="1" parent="oLGlpNgKoRY46IaJrlE8-142">
          <mxGeometry width="60" height="33" as="geometry" />
        </mxCell>
        <mxCell id="oLGlpNgKoRY46IaJrlE8-141" value="Cancel" style="fillColor=none;strokeColor=#FFFFFF;fontColor=#596780;align=center;verticalAlign=middle;fontStyle=0;fontSize=14;html=1;shadow=0;dashed=0;sketch=1;hachureGap=4;pointerEvents=0;fontFamily=Architects Daughter;fontSource=https%3A%2F%2Ffonts.googleapis.com%2Fcss%3Ffamily%3DArchitects%2BDaughter;" vertex="1" parent="oLGlpNgKoRY46IaJrlE8-142">
          <mxGeometry x="70" width="60" height="33" as="geometry" />
        </mxCell>
        <mxCell id="oLGlpNgKoRY46IaJrlE8-153" value="" style="group" connectable="0" vertex="1" parent="oLGlpNgKoRY46IaJrlE8-44">
          <mxGeometry y="670" width="830" height="869.38" as="geometry" />
        </mxCell>
        <mxCell id="oLGlpNgKoRY46IaJrlE8-154" value="" style="rounded=0;whiteSpace=wrap;html=1;strokeColor=default;gradientColor=default;fillColor=#000000;" vertex="1" parent="oLGlpNgKoRY46IaJrlE8-153">
          <mxGeometry y="66.09" width="830" height="573.91" as="geometry" />
        </mxCell>
        <mxCell id="oLGlpNgKoRY46IaJrlE8-155" value="" style="rounded=0;whiteSpace=wrap;html=1;fillColor=#0A0A0A;" vertex="1" parent="oLGlpNgKoRY46IaJrlE8-153">
          <mxGeometry x="270" y="130.62" width="560" height="509.38" as="geometry" />
        </mxCell>
        <mxCell id="oLGlpNgKoRY46IaJrlE8-156" value="&amp;nbsp; &amp;nbsp; &amp;nbsp; Logo / App name" style="html=1;shadow=0;dashed=0;fillColor=#000E17;strokeColor=default;fontSize=16;fontColor=#ffffff;align=left;spacing=15;" vertex="1" parent="oLGlpNgKoRY46IaJrlE8-153">
          <mxGeometry y="66.08773584905666" width="830" height="64.52830188679245" as="geometry" />
        </mxCell>
        <mxCell id="oLGlpNgKoRY46IaJrlE8-157" value="" style="shape=image;html=1;verticalAlign=top;verticalLabelPosition=bottom;labelBackgroundColor=#ffffff;imageAspect=0;aspect=fixed;image=https://cdn3.iconfinder.com/data/icons/essential-rounded/64/Rounded-31-128.png" vertex="1" parent="oLGlpNgKoRY46IaJrlE8-156">
          <mxGeometry x="668.3116883116883" y="10.464339622641509" width="38.12690476190476" height="38.12690476190476" as="geometry" />
        </mxCell>
        <mxCell id="oLGlpNgKoRY46IaJrlE8-158" value="&lt;font color=&quot;#ffffff&quot;&gt;Username&lt;/font&gt;" style="text;html=1;align=center;verticalAlign=middle;whiteSpace=wrap;rounded=0;" vertex="1" parent="oLGlpNgKoRY46IaJrlE8-156">
          <mxGeometry x="732.9883466249979" y="20.16509433962264" width="56.52667423382519" height="24.19811320754717" as="geometry" />
        </mxCell>
        <mxCell id="oLGlpNgKoRY46IaJrlE8-159" value="&lt;span style=&quot;font-family: sans-serif;&quot;&gt;&lt;font style=&quot;font-size: 20px;&quot; color=&quot;#f0f8ff&quot;&gt;Exercise name&lt;/font&gt;&lt;/span&gt;" style="text;html=1;align=left;verticalAlign=middle;whiteSpace=wrap;rounded=0;" vertex="1" parent="oLGlpNgKoRY46IaJrlE8-153">
          <mxGeometry x="50" y="160" width="210" height="30" as="geometry" />
        </mxCell>
        <mxCell id="oLGlpNgKoRY46IaJrlE8-160" value="" style="group" connectable="0" vertex="1" parent="oLGlpNgKoRY46IaJrlE8-153">
          <mxGeometry x="380" y="181" width="275.25" height="403" as="geometry" />
        </mxCell>
        <mxCell id="oLGlpNgKoRY46IaJrlE8-161" value="" style="rounded=1;whiteSpace=wrap;html=1;fillColor=#000000;strokeColor=#FFFFFF;" vertex="1" parent="oLGlpNgKoRY46IaJrlE8-160">
          <mxGeometry x="5.25" y="-2" width="270" height="260" as="geometry" />
        </mxCell>
        <mxCell id="oLGlpNgKoRY46IaJrlE8-162" value="upload" style="html=1;shadow=0;dashed=0;shape=mxgraph.bootstrap.rrect;rSize=5;strokeColor=none;strokeWidth=1;fillColor=#6C767D;fontColor=#FFFFFF;whiteSpace=wrap;align=center;verticalAlign=middle;spacingLeft=0;fontStyle=0;fontSize=16;spacing=5;" vertex="1" parent="oLGlpNgKoRY46IaJrlE8-160">
          <mxGeometry x="162.97316455696205" y="330" width="94.55696202531647" height="30" as="geometry" />
        </mxCell>
        <mxCell id="oLGlpNgKoRY46IaJrlE8-163" value="Take a picture" style="html=1;shadow=0;dashed=0;shape=mxgraph.bootstrap.rrect;rSize=5;strokeColor=none;strokeWidth=1;fillColor=#6C767D;fontColor=#FFFFFF;whiteSpace=wrap;align=center;verticalAlign=middle;spacingLeft=0;fontStyle=0;fontSize=16;spacing=5;" vertex="1" parent="oLGlpNgKoRY46IaJrlE8-160">
          <mxGeometry x="142.78000000000003" y="290" width="114.75" height="30" as="geometry" />
        </mxCell>
        <mxCell id="oLGlpNgKoRY46IaJrlE8-164" value="" style="group" connectable="0" vertex="1" parent="oLGlpNgKoRY46IaJrlE8-160">
          <mxGeometry x="125.00000000000001" y="379" width="130" height="33" as="geometry" />
        </mxCell>
        <mxCell id="oLGlpNgKoRY46IaJrlE8-165" value="Submit" style="rounded=1;fillColor=#0057D8;strokeColor=none;fontColor=#ffffff;align=center;verticalAlign=middle;fontStyle=0;fontSize=14;html=1;shadow=0;dashed=0;sketch=0;hachureGap=4;pointerEvents=0;fontFamily=Architects Daughter;fontSource=https%3A%2F%2Ffonts.googleapis.com%2Fcss%3Ffamily%3DArchitects%2BDaughter;" vertex="1" parent="oLGlpNgKoRY46IaJrlE8-164">
          <mxGeometry width="60" height="33" as="geometry" />
        </mxCell>
        <mxCell id="oLGlpNgKoRY46IaJrlE8-166" value="Cancel" style="fillColor=none;strokeColor=#FFFFFF;fontColor=#596780;align=center;verticalAlign=middle;fontStyle=0;fontSize=14;html=1;shadow=0;dashed=0;sketch=1;hachureGap=4;pointerEvents=0;fontFamily=Architects Daughter;fontSource=https%3A%2F%2Ffonts.googleapis.com%2Fcss%3Ffamily%3DArchitects%2BDaughter;" vertex="1" parent="oLGlpNgKoRY46IaJrlE8-164">
          <mxGeometry x="70" width="60" height="33" as="geometry" />
        </mxCell>
        <mxCell id="oLGlpNgKoRY46IaJrlE8-167" value="&lt;span style=&quot;font-family: sans-serif; font-size: 14px;&quot;&gt;&lt;font color=&quot;#f0f8ff&quot;&gt;Lorem ipsum dolor sit amet, consectetur adipiscing elit, sed do eiusmod tempor incididunt ut labore et dolore magna aliqua. Ut enim ad minim veniam, quis nostrud exercitation ullamco laboris nisi ut aliquip ex ea commodo consequat. Duis aute irure dolor in reprehenderit in voluptate velit esse cillum dolore eu fugiat nulla pariatur. Excepteur sint occaecat cupidatat non proident, sunt in culpa qui officia deserunt mollit anim id est laborum.&lt;/font&gt;&lt;/span&gt;" style="text;html=1;align=left;verticalAlign=middle;whiteSpace=wrap;rounded=0;" vertex="1" parent="oLGlpNgKoRY46IaJrlE8-160">
          <mxGeometry x="46.76999999999998" y="30" width="208.23" height="196" as="geometry" />
        </mxCell>
        <mxCell id="oLGlpNgKoRY46IaJrlE8-250" value="" style="html=1;verticalLabelPosition=bottom;align=center;labelBackgroundColor=#ffffff;verticalAlign=top;strokeWidth=2;strokeColor=#0080F0;shadow=0;dashed=0;shape=mxgraph.ios7.icons.back;" vertex="1" parent="oLGlpNgKoRY46IaJrlE8-153">
          <mxGeometry x="15" y="155.5" width="30" height="25.5" as="geometry" />
        </mxCell>
        <mxCell id="oLGlpNgKoRY46IaJrlE8-255" value="" style="shape=image;verticalLabelPosition=bottom;labelBackgroundColor=default;verticalAlign=top;aspect=fixed;imageAspect=0;image=data:image/png,iVBORw0KGgoAAAANSUhEUgAAAhsAAABtCAYAAAAIw6NIAAAABHNCSVQICAgIfAhkiAAAABl0RVh0U29mdHdhcmUAZ25vbWUtc2NyZWVuc2hvdO8Dvz4AAAAtdEVYdENyZWF0aW9uIFRpbWUAVGh1IDE0IE1hciAyMDI0IDAzOjQ2OjIyIFBNIEVFVHpJVPQAAByRSURBVHic7d15fBRVogXgU9VbQiBICG7MgCgSSNhdEFBUFg07OCOigOiIOrgiuKJPRph5rOMC+EZQnCHguAKyi0PCGBTcEFAC4aFPDMgmIxACdHdVV70/urtSnV6qO70n5/sJ6a6uunWrMKmTW/feElRVVUFEREQUJ2KyK0BERER1G8MGERERxRXDBhEREcUVwwYRERHFFcMGERERxRXDBhEREcWVOdkVqA1FUeBSFCiKCkVVoCoqFFWFexSvCg7mJSKidCUIACBAEASIggBBFCAKIkRRgEkUIYrp104gpMM8Gy5FgUt2QVZccLkUpEGViYiI4kIQBJhMIsyiCSazCaY0CB8pGzZcLhck2QXZJUNRUrKKRERESSeKAswmMyxmE0wmU7KrE1BKhQ1VVSFJMpyyDEVRkl0dIiKitCKKIqxmMywWMwT3/ZiUkBJhQ1EUOCUZTklKdlWIiIjqBKvFAqvFnBJ9PJIaNhRVhdMpMWQQERHFidVigdVqgZjElo6khQ2HU4LD6UzGromIiOodm9UKm9WSlH0nPGzIsgt2p5N9MoiIiBJMFEVkWK0wmxPbkTShYcPucPKWCRERUZJZLRZk2KwJ219CwoZLUWC3O+BiawYREVFKMIkiMjJsCZmnI+5hQ5JlnLM74rkLIiIiqqXMDBss5vhOKB7XsMFOoERERKkv3p1H4xY22D+DiIgofcSzH0dcwsY5hwOSJMe6WCIiIooji8WMTJst5uXGvFcIgwYREVF6kiQZ5xyx72cZ07BhdzgZNIiIiNKYJMmwO2Lb3zJmYcPBaceJiIjqBKckweGM3TU9JmFDkmWOOiEiIqpDHE4nJDk2dyuiDhsuReE8GkRERHXQuRhNyBl12LAzaBAREdVZsbjORxU27A4npyAnIiKqw1yKEnWH0VqHDVl2sUMoERFRPeCUJMiyq9bb1zps2NkhlIiIqN6I5rpfq7DhcEpQePuEiIio3lAUpdbDYSMOG4qqcpgrERFRPeRwOqHU4iknEYcNZwwn+SAiIqL0UpscEFHYUBSFnUKJiIjqMacUeVeKiMKGk889ISIiqvcizQNhhw1VVdmqkWYE3ddgf4iIiCLllCSoEfTdMIe7Ip/mGn/ei7/qeR3sayQFhlxf9f088i4/8eE9Vv3rcL5GQ18WEREZkyQZVqslrHXDDhvOGD2MhaoFu0AKnquevmUCAiCoujexuMT6bK6636red/ETsvaehYLu6i/U/OpZT/BUUhD0G6v+hQEIHFF0a6q+WzB0EBGF5pRjHDZcLhfn1YgBn4urYBAUAn0sGK0QDUH3pTp4RHvRDRYsBL8PaqwhGHwNsEmIhQYF1XyrauEDYPAgIgpEURS4XC6YTCbDdcMKG1IUU5RSoIyQ6r0lqoOH4LknF+kF1y8TBAoVKXsaBOjTFm+vEBEFJskxDBuyi7dQasP/+pqyV9fgPE0QQpi3V/yOMC3CVTDVoSNWLT1ERHWJOx9YDdczHI3iUhQoCn/ERso3X6T72A+jnqaBN3EHlXQ+bq/q46gLR0NUlxw5ciTZVajXFEUN6+nvxmGDt1AiVh006srFFvAGjmBdSbQjrVMhowYh+DkgosSx2+3a69mzZqJD+wLMmjkDp06dSmKtYkOWZZTv2QM5jQZlhJMTDMOGrDBsRMI3aCR2v7X5E/FealxsfVpw0vqWSbgYOIiSqXjjRsyfN1d7r6oqKn76CX/585/RPr8d5s2dG9H8D6nkzUWL0OI3zdHt6qvQ4jfN8eaiRcmuUljCyQnGLRuu1ByF8uGKFfjii8+TXY3AEnAlMgwNYaaLyEOH4P8qRW4V+Y14MfgT7Z4YOIgS618ff4wRt/7eZ96niy66SHtdWVmJ556djEED+uPYsWPJqGKtle/Zg8cmPIozZ84AAM6cOYPHJjyK8j17klwzY+HkhJBhQ1GUlE6IN/XtiynPP5/samgE378CkmUZRYsXY+RtI9C929W46sorMHzoULw6fx7OnT3rWxbCu1CWl5fjqaeeRJ/eN6JL587o1es6PPzQQ/jyiy/9S/MUIMsyFi9ejJEjb0P3a7rh6quuxC3DhuF/Xp2Ps7p6BDtQ/6DhtmP7dnQoKMCkiRNDl6FTXLwR9993L3pd2xNXdOmMm/v1w5Tnn8fBgwf9WlGMwoMA4MSJE5g9ayYGDRyAK6/oiu7dr8Ho0aOwbNkHUHVdPANtf/jQIdw99k50KCjA8KFDQ5wDRg2iRNqw4SOMvG2E3+2FJ558CnvK92LosGHask8//RQDCm/G8ePHE13NWtuyZUtEy1OJqqqG02OEDBvhdPpItpdfehFXXXkF1q9bl+yqeAS/CNntdtw19k7MnjUL5eXluKRVK+Tn5+Pgzwfx2t9ew4hbf4+TJ0/4XDiDFu/5+pHnG3DtmrVQVRWdu3RGo4aNsKlkE+75w91YumSJ34b2c+56zJk9G3tr1GPBawtw+20jcPLkiZDHGCxYbd5cCgC47rrrQmxfbeaMGZjwyKPY8tkWnNekCTp26gSH04Hly5bhluHDsGPnzohaIn7cvx/DhgxG0eIiHD9+HPkFBfjtb36Lb3fuxJTnp2DSxInuxyMHKHTVypW4ZfgwfP31tvB2xtspRAnx0UfrccfIkUH7MVzcvDmKlizF3PnztWGY+/btw5BBA+F0OhNZ1VrLzc2NaHmqMcoLBi0bqduqofe/e/di5G0j8PCDD+LXX39NSh3C6a7w8ksvYeeOnWjdujXWrV+Pd955F0VFS1BSsgnXXHMN9u//CX+aMqW6wFC/vgM4euwYnps8GbLswhNPPomNJZvw938sxtr16/HyK6/AZDJh1syZKC/f41ePHZ56rFm3Hm+/8y4WFxWhuLhEq8fUF14wPGAhwAFvLt0MQQB6Xntt6O3hbtFYumQJsrIaYNGbb2L16jX4x+LFKC7ZhD/ccw/OnT2HiRMehd3hCN7Uo1umAnji8Un49dcTKCwsxKZ/f4KiJUvx3gcfYPmHH+LCiy7Exxs+xtv/fMvnOOx2OyZMeBTPTp6MJjk5GHvXWMO6E1FirF+/DqNuvz2sDpNjx96FD1eugtnsntWhrKwM06Ya/CxLEUOGDkWPnj19lvXo2RNDQrWwphCjvBA6bKip37KhV1S0GFdd0VX323zqOHXqFN57910AwIyZM9H84ubaZ9mNszFr9mxYrRYUbyzGjz/+GKKk6ivt0qIi2O0O9OnTB2PvuguiWP3P2bdfP9x+xygoiopFb7zhU493PfWYPnMGmjdvrpWb3Tgb02fOhM1mRUlxCfbv3x+0BoFuIxw/fhzl5XvQtm07NGvWLOT5EAC8vnAhAODhRx5Bt2u6aeHBbDbhsYkTkZ+fj2PHfsGqlSt1Ow5UGbfNpaUo31OO3Ga5+Mv06chs0ED7rHXryzH52WcBAIveeMPzjeE+j8eOHcPGf23EoEGD8MGyZWjfvkPIugfcORHFXDhB49udO31u9/e6/nrM+etftffz5s5FRcVPca1nrKxesxbPPvcchg0fjmefew6r16xNdpXCZpQXQoYNNU1aNvSOHz+OBx8YjztuH4nv9+1L8N6DX3w+3bwZkiQhr20e2rZt67dJTtMcrTWguLgY+l/dx4wejfb5BZgxfYZPmcUlxQDgc69Sb6gnEZd+8on2zfrp5lJdPdr51b9p0xz06NkTgiBgU0lJGMdcbXNpKVQVuNbgFooAd6tM2a4yCAIwePAQvzUEQcCgwYPdx1m8EfqQNfeVuWifX4Df3XKLz3L3ekBhYX/YbDa//d5ww43IbpyNY8d+wa7vvtOWZ2RkYPqM6ZgxayaysrIiOmbeSiGKD2/QcLlCj3RYvPgfGNi/0KfP291/uAd9+/UD4O5PMH/evLjWNVbMZjOefOppLC5agiefelproUkHRnnBoGUj/cKG19o1a3DlFV0x95WXk10VAMDu3WUAgA4dPL81+/UZENCxY0cAQFnZLp/lgVRVVaHipwrfMmtok9cGNpsVZ86cxX5Pa0lZ2e6Q2+jr4a2z76e+r/S10/pr9OoVpOzq9XeXuctu0aIlGp/XGIG6v2rnY5d/PQLZbXBsoiiifUF7AMCuXdXn+PwLLsDgIbVtqmTUIIrG+D/ej8aNGvr9GTlihGHQANxh4rPPPsP48X/0WT5lyp+0195WZYofo7wQMjal8kiUcKiqiv967jmsW7sWL0ybhm7dronLfsLpr1FR4Q4GFzdvXuOT6g29Q7i863rdccco9OnTB/n5BdqyA551LBYLcoPcshBFE86/4AIcqDiAiooKtL78cq05sblfPapdcOGF7n0cOBB4BX1fCc//Ii6XjM+3bkWj7Ebo5AkJwTbTH+PFzS8OWg/v+Th58iROV1aiUXY2AHfn0+zsRsjJaeqzfjjHFuwc+9ewekkqfBeUFBdjU0kJfvklvYbzUWI0aZKDjp06okuXrmh2/vlo2rSp8UZ1hOC5pbti+XLcffcfcP0NNwAAOnbqhPYdOmDXd9/hxIkT2L17N/Lz85NY0/CUlpZib3k58tq2Ra8Qv7ilGqO8YNBGkwo/ZqO3detW3NS3LyY8NhEvTJ2alDpUnT4NAGjUsFHNcaOahg0bAQBOV572Wd5/wAC/8k57ymvYMEv7ZgukkbfM05UQAFSdrvLZV8htatQjlG+++QanT1fh5sJCiGE8lKeqynM+GgWvR0PdZ5WnT2tho0vXrujStavPuoqi4MyZs37b+ZfZEID7fMRMnBNJSXEx3nv3nfjtgNLeiRO/4pN//xsA0K6d+4JaXwKH/uff/PnztLABAL1799ZumW7b9nXKh42Jj03w6WN3z7hxePGl1GidNxbFbZQ0b9jwk8xhsg7P8CuLxRJ0HavV6lnXYVie07NOqPIEfZkOp0/Z0dUj0CgU9y2UXr3CG/LqrY+7HoHDkrceAOB0hD4nkm54WzjH5nSkx3A4ABH3naH669ud3wIAfkmzCa2ioZ/fYeeOHT6fXXrppdrrAxVBWmpTRGlpqU/QANyd2Us9P1tTnVFeMJxBtK7RD5NNJJv3IhdizLf3s4wAnRtrslrd60iSFHQdVVemLcPmqYd3u8jrEepOUeknpZ4hr+GFDZtNfz4C/1+qP1e2jIyQ5VltNm2AjBTGOfaej3TAWycUrhMn3EP/9c8OqU+OHj3q8z43t/oW8y+//JLo6kRkb3l5RMvTTb0LG23y8vDOu+9h3quvJnS/2dmNAXia77Vrq+9FtrKy0mfdkOU1dt9SOF1VBTXEZCqVlac8ZWZD1W1XGeIWSbB6qAFeAcDhw4fxww8/oF1+fthNt9meWyKhbtV4665fPxhBENCwofsWSWWIWyTVxxa6vFTSrNn5ya4CpYkmTXIAuEdY1Uf6qcuB6tvNANC4sfHP1WTK049SDGN5ugkZNurajMwTHpuIr77eFrAPRDRU7a/gWrRsCQA4ePDnAFu7Nz5wwN1p8ZJWlxjus2XLlhAEQJZkHD12NOA6kiThiCfpt7qklbYdAPz888GgZR886G5ubHlJy8ArqL5fSz/5BIDxrKH6U6SdjxD18DZ75jbL1YJEKN4yf/Y7x/5ltmrVKoxapoYbe/dOdhUoTXTs5O6c3ez8+hNQ9X02uvfo4fOZfs6iCz0d31NVr169cM+4cT7L7hk3Lm06iRrlBYOWjbqRNrp3746PNxYnrXMoUD2Mc8eO7e4F1RkD3gXffPMNAKBz586G5WVmNsBll7V2l7l9R8B1vvv2W8iSjCZNzkOLFi0AAB20egTeRl+Pjh07GdZDRfWQ12vDuIXiPeT27TtAFAUcPHAQ/zn+H/ieEPdXbz06dTI+H+76eo5t+/aAnzudTm1YcbhlpoLeffpgxG0j2cJBQTVpkoPrb7gBXbp0xW9btKg3nUNruu9+3+GvxRs3aq+vuPKKRFcnYi++9DJWr12HOX99EavXrkujzqGAUV4IORpFEIS0Hv4qCAKmTpuGRx6dkKA9emel9NezZ09kZGbgx//7ETt27kTnTr4X8oqfKvDVl1/CbDahT5++8P8N27/cvv364vvvv8fy5ctQ2L+/3+cfvP8+AKDfTTdpI0R69rwWmZ567NyxA518go2KAxUH8PVXX8FsMaN3nz4Gx+q+gH/xxRdo3LixFmSMqACa5uSgS5eu2LZtG5YvX45777vXp1xZkrBy5YcAgMLCQvieW/25EbTP+vbth7f/+TY2bNiAiY8/7jdB19o1q3HunB2tWl2CNnl5QY8p9JKwNou53n36GPx7EKWnNm3a4NoAjzcoLy+P6EFqfxw/Ht27d9fel+3ahW3bvgYAZGVloUuXrsE2TSm9evVKm9YMvVCjIgGDlg0xje+jDBw0CF9v+yaBQSO0BllZGDPmTgDAs888g59+8kyfqwJHjx7D45MmQVFU3PK73/s1923YsAFLiorw9Vdf6ZaqGDV6DBo2zMKWz7ZgwWuvaRPgqKqK9959B6tWrYLNZsW4cfdqW2VlZWHMnZ56TJ5cXQ+oOHr0GJ54/HEoiophw4bjggsu8DuOmtfVr776EvZzdvTo2UN7AFI4VAD3eybhWfDa37C5dLPWuOFwOPGnP03BgYoDaN26NW66+WbdVip27tiJJUVFWLN6DfStId2u6YbOXTrj5MmTePqpJ1FVVaXtb8f27ZgzZw4A4MGHHg5QGzXwARJRXD02cRLWrv/I78+Gf200fOwB4J5185nJkzFj5iyf5XPmzNZe//7WEWk1G2c6MsoLghqi6eKcwwFJMn74TTJ8uGIFxt45xm95bm4uXpg6DaPH+H8Wb8GeGeIlSRIeGP9HfL71c5hMIvLatoXJZEL5nnJIkoROnTrijTf/jswanbvGjBmN7d9sx+gxY/D0M0/7/JK/efNmPPrww3A6JeQ2y0WLFi1w+PBhHD50GGazCTNnzcLNhf396vHg+PHYunUrTCYRbdu2hWgyYW/5Xq0eC99YFLKTmeB5WPuM6dPx1tK38N/Tp2PwkJrTjht7df48vPa31wAAl1zSEk1ycvDDDz+g8lQlcnKa4B9FS3Bpjf4Vc+fOxcIFC5DXNg/Lli3XVwqHDh3CmNGjcfTIUTRo0ABt8trgTFUV9u37HgAwavQoPDN5sk958+fN8xleVllZiYMHDsJms+Ky1q215dmNsvH6okU1jkD1/kdEMbZ3714U3tTP7wGbTz8zWfs+Pnv2DBo08G3F/HTzZgwcUP1zb9v2HWit+15OVbIs48W/zkFZWRkKCgowcdLjaROSLBYzMkOMpAx5FKKQXoNV7rxzLF6YNg05OTlJrEXwWykWiwULFi7E2/98G6tWrcT+H/dDhYrLWl+GgQMHYtToMbCGmCNCK1739bprr8P7HyzD6wsX4ssvv8B3336Hxuc1RmFhIe65dxzatWun28B9y8FiMeNvCxbgnbf/iVWrVuFHTz0uvexSDBg4EKNGjQ45VwWgusdUC7qnvNZ4WmG4HnzoYXTo2BFvLV2Ksl1lOHTokHv68MFDcN/996NpJP+WKnDxRRdjxYoPsXDhQmwqKcHusjJkZGbi6m5X4/bb70C/m/rpTwUA4OCBg9pU53oOh9Nn+XnnBe7NzqBBFB95eXlYs3Yd+hfejFOnTgVcp2bQ+Pzzz3HbiFu19+MfeCAtggYADB40EFs++wyA+xfqTZs2Yf1HG5Jcq/AY5YWQLRuSLOOc3XiCqWTQt2y0ycvD1KnTYj7KpDYE37/it4/arhTkXzuiC6aq+kaqOB9vuKKtQa1Cg+dcEFH87Ni+HQMH9NdujepbNvS2bNmCW4YP0x7KVlBQgE2flAZ8MGOqWbVyJcaMHuW3fMnSt9LiMfOZGTZYQrTChIwiJjH1WzbiNZw1KuGMhY2y+EB/Il8p6GKDvQdaFHlJsRbskNUwPq9dzRkziBKhc5cuWLl6tV8rhteBigpMmvgYBg8coAWNNm3aYOXqNWkRNAAE7QwbSSfZZDLKC6E7iIqiYQ/TZPp448akDmcNxHe+rsRejIwuptFfYH37J/iUob1JzQtw7GvFjhpEiXTllVdh2YoVfuFh9qyZaF+Qjzdefx2y7O5jeMONN2L9ho/D6mCaKnrUmCPEaHkqEQQBYjRhAwBMptRs3Rg2fHjcnuIarWQGjvgJ3hHSpxuJCrg7dNSV4w6k+kTU5aMkSjU9evTA+x8sQ4bucQNHjhzRXufk5GDGzFn4cOUq5ObmJqOKtda2XTu89PIr2pD9rKwsvPTyK2ir9btLXeHkhJB9NgDA6ZRgD/GsCQrOp00ohVuIjIV/cQ14lEGecpu2PN8yDBpEyWG327XRco9PmojijRsx9q67cO999/vNr5NuZFnG9/v2ofXll6fNSJQMqxVWa+jBDYZhw6UoOHP2XEwrVt+kWkfKiERxYQ0ePKon4kovbNEgSjVHjhxJ+anI67qsBpmGfTYMwwYAVJ09C0Xhj9dopU9LR/UVNZb/6n5HLIT8NIXE53wQEaU7URTQsEEDw/XCaqMxm8xwKsEfZU7h8V6oBEBrMfDh0wSi1ngd79YANdCXeOzBZ4FQ841+Jb/zEei8+K0cI/4ngkGDiMiX2RTerZ6w1rKYTXBKDBuxEuyiJaiB1lADf615rdUKqfkmyFDVAB8l42KqBn0DXRipeQ4CrCyoQY/LN6cJ7qAXKJukwPkgIkonFnN4j6kIK2yYTCaIoghFUaKqFIUW0cWt5rU24PIak2/pPwnQkJCKwq5fgDyiPbbNmy1U7xnxzSbezdLhfBARpQpRFMN+JlbY41qtadIrtr4KNY9GqOV1WaBzoP8s0DpERBSeSHJB2GHDYmHYICIiIrdIckHYYUMQBOOHhBEREVGdZ7VYIpphPKLpQa1s3SAiIqr3Is0DEYUNURTZukFERFSPWS0Ww2eh1BTxg0+MpiQlIiKiuqs2OSDisCEKAmxWa8Q7IiIiovRms1oh1mIG7Fo90tVmjbwJhYiIiNKXKIqw1fLuRq0TQwZbN4iIiOqNaK77tQ4bZrOJnUWJiIjqAavFAnOYU5MHEtW9kAyb1fCxskRERJS+TKKIDFt0dzOiTgoZGbZoiyAiIqIUFYvrfNRhwySKyGTgICIiqnMyM2wxuYMRk3sgFrOZw2GJiIjqEJvVCkuMHsIasw4XNquFHUaJiIjqAKvFUuthroHEtHdnhs3Kp8MSERGlMYvFHHWH0JpiPpQk02Zj4CAiIkpDFosZmbbY98MUVFVVY14qALvDCackxaNoIiIiijGrxRLzFg2vuIUNAHA4JTiczngVT0RERDFgs1pj2kejpriGDQCQZBnn7I547oKIiIhqKTPDFrNRJ8HEPWwAgEtRYLc74FKUeO+KiIiIwmASRWTEaB4NIwkJG17sx0FERJR88eyfEUhCwwYAyLILdqcTCls5iIiIEkoURWRYrVE9VK02Eh42vNh5lIiIKHHi3Qk0lKSFDQBQVBVOp8RbK0RERHFitVhgtVogCkLS6pDUsOGlKAqckszQQUREFCNWiwVWixliAjqAGkmJsOGlqiokSYZTltmng4iIKEKiKMJqNsNiMUNIYktGTSkVNvRcLhck2QXZJUNRUrKKRERESSeKAswmMyxmE0ymxHb8DFfKhg09l6LAJbsgKy64XArSoMpERERxIQgCTCYRZtEEk9mUkHkyopUWYaMmRVHgUhQoigpFVaAqKhRV9YQQFel3RERERG7uux8CBEGAKAgQRAGiIEIUBZhEMSX6YEQqLcMGERERpY/0i0dERESUVhg2iIiIKK4YNoiIiCiuGDaIiIgorhg2iIiIKK4YNoiIiCiu/h89dWuiaNKj+AAAAABJRU5ErkJggg==;" vertex="1" parent="oLGlpNgKoRY46IaJrlE8-153">
          <mxGeometry x="12.75" y="210" width="247.25" height="50" as="geometry" />
        </mxCell>
        <mxCell id="oLGlpNgKoRY46IaJrlE8-251" value="" style="html=1;verticalLabelPosition=bottom;align=center;labelBackgroundColor=#ffffff;verticalAlign=top;strokeWidth=2;strokeColor=#0080F0;shadow=0;dashed=0;shape=mxgraph.ios7.icons.back;" vertex="1" parent="oLGlpNgKoRY46IaJrlE8-44">
          <mxGeometry x="15" y="155.5" width="30" height="25.5" as="geometry" />
        </mxCell>
        <mxCell id="oLGlpNgKoRY46IaJrlE8-254" value="" style="shape=image;verticalLabelPosition=bottom;labelBackgroundColor=default;verticalAlign=top;aspect=fixed;imageAspect=0;image=data:image/png,iVBORw0KGgoAAAANSUhEUgAAAhsAAABtCAYAAAAIw6NIAAAABHNCSVQICAgIfAhkiAAAABl0RVh0U29mdHdhcmUAZ25vbWUtc2NyZWVuc2hvdO8Dvz4AAAAtdEVYdENyZWF0aW9uIFRpbWUAVGh1IDE0IE1hciAyMDI0IDAzOjQ2OjIyIFBNIEVFVHpJVPQAAByRSURBVHic7d15fBRVogXgU9VbQiBICG7MgCgSSNhdEFBUFg07OCOigOiIOrgiuKJPRph5rOMC+EZQnCHguAKyi0PCGBTcEFAC4aFPDMgmIxACdHdVV70/urtSnV6qO70n5/sJ6a6uunWrMKmTW/feElRVVUFEREQUJ2KyK0BERER1G8MGERERxRXDBhEREcUVwwYRERHFFcMGERERxRXDBhEREcWVOdkVqA1FUeBSFCiKCkVVoCoqFFWFexSvCg7mJSKidCUIACBAEASIggBBFCAKIkRRgEkUIYrp104gpMM8Gy5FgUt2QVZccLkUpEGViYiI4kIQBJhMIsyiCSazCaY0CB8pGzZcLhck2QXZJUNRUrKKRERESSeKAswmMyxmE0wmU7KrE1BKhQ1VVSFJMpyyDEVRkl0dIiKitCKKIqxmMywWMwT3/ZiUkBJhQ1EUOCUZTklKdlWIiIjqBKvFAqvFnBJ9PJIaNhRVhdMpMWQQERHFidVigdVqgZjElo6khQ2HU4LD6UzGromIiOodm9UKm9WSlH0nPGzIsgt2p5N9MoiIiBJMFEVkWK0wmxPbkTShYcPucPKWCRERUZJZLRZk2KwJ219CwoZLUWC3O+BiawYREVFKMIkiMjJsCZmnI+5hQ5JlnLM74rkLIiIiqqXMDBss5vhOKB7XsMFOoERERKkv3p1H4xY22D+DiIgofcSzH0dcwsY5hwOSJMe6WCIiIooji8WMTJst5uXGvFcIgwYREVF6kiQZ5xyx72cZ07BhdzgZNIiIiNKYJMmwO2Lb3zJmYcPBaceJiIjqBKckweGM3TU9JmFDkmWOOiEiIqpDHE4nJDk2dyuiDhsuReE8GkRERHXQuRhNyBl12LAzaBAREdVZsbjORxU27A4npyAnIiKqw1yKEnWH0VqHDVl2sUMoERFRPeCUJMiyq9bb1zps2NkhlIiIqN6I5rpfq7DhcEpQePuEiIio3lAUpdbDYSMOG4qqcpgrERFRPeRwOqHU4iknEYcNZwwn+SAiIqL0UpscEFHYUBSFnUKJiIjqMacUeVeKiMKGk889ISIiqvcizQNhhw1VVdmqkWYE3ddgf4iIiCLllCSoEfTdMIe7Ip/mGn/ei7/qeR3sayQFhlxf9f088i4/8eE9Vv3rcL5GQ18WEREZkyQZVqslrHXDDhvOGD2MhaoFu0AKnquevmUCAiCoujexuMT6bK6636red/ETsvaehYLu6i/U/OpZT/BUUhD0G6v+hQEIHFF0a6q+WzB0EBGF5pRjHDZcLhfn1YgBn4urYBAUAn0sGK0QDUH3pTp4RHvRDRYsBL8PaqwhGHwNsEmIhQYF1XyrauEDYPAgIgpEURS4XC6YTCbDdcMKG1IUU5RSoIyQ6r0lqoOH4LknF+kF1y8TBAoVKXsaBOjTFm+vEBEFJskxDBuyi7dQasP/+pqyV9fgPE0QQpi3V/yOMC3CVTDVoSNWLT1ERHWJOx9YDdczHI3iUhQoCn/ERso3X6T72A+jnqaBN3EHlXQ+bq/q46gLR0NUlxw5ciTZVajXFEUN6+nvxmGDt1AiVh006srFFvAGjmBdSbQjrVMhowYh+DkgosSx2+3a69mzZqJD+wLMmjkDp06dSmKtYkOWZZTv2QM5jQZlhJMTDMOGrDBsRMI3aCR2v7X5E/FealxsfVpw0vqWSbgYOIiSqXjjRsyfN1d7r6oqKn76CX/585/RPr8d5s2dG9H8D6nkzUWL0OI3zdHt6qvQ4jfN8eaiRcmuUljCyQnGLRuu1ByF8uGKFfjii8+TXY3AEnAlMgwNYaaLyEOH4P8qRW4V+Y14MfgT7Z4YOIgS618ff4wRt/7eZ96niy66SHtdWVmJ556djEED+uPYsWPJqGKtle/Zg8cmPIozZ84AAM6cOYPHJjyK8j17klwzY+HkhJBhQ1GUlE6IN/XtiynPP5/samgE378CkmUZRYsXY+RtI9C929W46sorMHzoULw6fx7OnT3rWxbCu1CWl5fjqaeeRJ/eN6JL587o1es6PPzQQ/jyiy/9S/MUIMsyFi9ejJEjb0P3a7rh6quuxC3DhuF/Xp2Ps7p6BDtQ/6DhtmP7dnQoKMCkiRNDl6FTXLwR9993L3pd2xNXdOmMm/v1w5Tnn8fBgwf9WlGMwoMA4MSJE5g9ayYGDRyAK6/oiu7dr8Ho0aOwbNkHUHVdPANtf/jQIdw99k50KCjA8KFDQ5wDRg2iRNqw4SOMvG2E3+2FJ558CnvK92LosGHask8//RQDCm/G8ePHE13NWtuyZUtEy1OJqqqG02OEDBvhdPpItpdfehFXXXkF1q9bl+yqeAS/CNntdtw19k7MnjUL5eXluKRVK+Tn5+Pgzwfx2t9ew4hbf4+TJ0/4XDiDFu/5+pHnG3DtmrVQVRWdu3RGo4aNsKlkE+75w91YumSJ34b2c+56zJk9G3tr1GPBawtw+20jcPLkiZDHGCxYbd5cCgC47rrrQmxfbeaMGZjwyKPY8tkWnNekCTp26gSH04Hly5bhluHDsGPnzohaIn7cvx/DhgxG0eIiHD9+HPkFBfjtb36Lb3fuxJTnp2DSxInuxyMHKHTVypW4ZfgwfP31tvB2xtspRAnx0UfrccfIkUH7MVzcvDmKlizF3PnztWGY+/btw5BBA+F0OhNZ1VrLzc2NaHmqMcoLBi0bqduqofe/e/di5G0j8PCDD+LXX39NSh3C6a7w8ksvYeeOnWjdujXWrV+Pd955F0VFS1BSsgnXXHMN9u//CX+aMqW6wFC/vgM4euwYnps8GbLswhNPPomNJZvw938sxtr16/HyK6/AZDJh1syZKC/f41ePHZ56rFm3Hm+/8y4WFxWhuLhEq8fUF14wPGAhwAFvLt0MQQB6Xntt6O3hbtFYumQJsrIaYNGbb2L16jX4x+LFKC7ZhD/ccw/OnT2HiRMehd3hCN7Uo1umAnji8Un49dcTKCwsxKZ/f4KiJUvx3gcfYPmHH+LCiy7Exxs+xtv/fMvnOOx2OyZMeBTPTp6MJjk5GHvXWMO6E1FirF+/DqNuvz2sDpNjx96FD1eugtnsntWhrKwM06Ya/CxLEUOGDkWPnj19lvXo2RNDQrWwphCjvBA6bKip37KhV1S0GFdd0VX323zqOHXqFN57910AwIyZM9H84ubaZ9mNszFr9mxYrRYUbyzGjz/+GKKk6ivt0qIi2O0O9OnTB2PvuguiWP3P2bdfP9x+xygoiopFb7zhU493PfWYPnMGmjdvrpWb3Tgb02fOhM1mRUlxCfbv3x+0BoFuIxw/fhzl5XvQtm07NGvWLOT5EAC8vnAhAODhRx5Bt2u6aeHBbDbhsYkTkZ+fj2PHfsGqlSt1Ow5UGbfNpaUo31OO3Ga5+Mv06chs0ED7rHXryzH52WcBAIveeMPzjeE+j8eOHcPGf23EoEGD8MGyZWjfvkPIugfcORHFXDhB49udO31u9/e6/nrM+etftffz5s5FRcVPca1nrKxesxbPPvcchg0fjmefew6r16xNdpXCZpQXQoYNNU1aNvSOHz+OBx8YjztuH4nv9+1L8N6DX3w+3bwZkiQhr20e2rZt67dJTtMcrTWguLgY+l/dx4wejfb5BZgxfYZPmcUlxQDgc69Sb6gnEZd+8on2zfrp5lJdPdr51b9p0xz06NkTgiBgU0lJGMdcbXNpKVQVuNbgFooAd6tM2a4yCAIwePAQvzUEQcCgwYPdx1m8EfqQNfeVuWifX4Df3XKLz3L3ekBhYX/YbDa//d5ww43IbpyNY8d+wa7vvtOWZ2RkYPqM6ZgxayaysrIiOmbeSiGKD2/QcLlCj3RYvPgfGNi/0KfP291/uAd9+/UD4O5PMH/evLjWNVbMZjOefOppLC5agiefelproUkHRnnBoGUj/cKG19o1a3DlFV0x95WXk10VAMDu3WUAgA4dPL81+/UZENCxY0cAQFnZLp/lgVRVVaHipwrfMmtok9cGNpsVZ86cxX5Pa0lZ2e6Q2+jr4a2z76e+r/S10/pr9OoVpOzq9XeXuctu0aIlGp/XGIG6v2rnY5d/PQLZbXBsoiiifUF7AMCuXdXn+PwLLsDgIbVtqmTUIIrG+D/ej8aNGvr9GTlihGHQANxh4rPPPsP48X/0WT5lyp+0195WZYofo7wQMjal8kiUcKiqiv967jmsW7sWL0ybhm7dronLfsLpr1FR4Q4GFzdvXuOT6g29Q7i863rdccco9OnTB/n5BdqyA551LBYLcoPcshBFE86/4AIcqDiAiooKtL78cq05sblfPapdcOGF7n0cOBB4BX1fCc//Ii6XjM+3bkWj7Ebo5AkJwTbTH+PFzS8OWg/v+Th58iROV1aiUXY2AHfn0+zsRsjJaeqzfjjHFuwc+9ewekkqfBeUFBdjU0kJfvklvYbzUWI0aZKDjp06okuXrmh2/vlo2rSp8UZ1hOC5pbti+XLcffcfcP0NNwAAOnbqhPYdOmDXd9/hxIkT2L17N/Lz85NY0/CUlpZib3k58tq2Ra8Qv7ilGqO8YNBGkwo/ZqO3detW3NS3LyY8NhEvTJ2alDpUnT4NAGjUsFHNcaOahg0bAQBOV572Wd5/wAC/8k57ymvYMEv7ZgukkbfM05UQAFSdrvLZV8htatQjlG+++QanT1fh5sJCiGE8lKeqynM+GgWvR0PdZ5WnT2tho0vXrujStavPuoqi4MyZs37b+ZfZEID7fMRMnBNJSXEx3nv3nfjtgNLeiRO/4pN//xsA0K6d+4JaXwKH/uff/PnztLABAL1799ZumW7b9nXKh42Jj03w6WN3z7hxePGl1GidNxbFbZQ0b9jwk8xhsg7P8CuLxRJ0HavV6lnXYVie07NOqPIEfZkOp0/Z0dUj0CgU9y2UXr3CG/LqrY+7HoHDkrceAOB0hD4nkm54WzjH5nSkx3A4ABH3naH669ud3wIAfkmzCa2ioZ/fYeeOHT6fXXrppdrrAxVBWmpTRGlpqU/QANyd2Us9P1tTnVFeMJxBtK7RD5NNJJv3IhdizLf3s4wAnRtrslrd60iSFHQdVVemLcPmqYd3u8jrEepOUeknpZ4hr+GFDZtNfz4C/1+qP1e2jIyQ5VltNm2AjBTGOfaej3TAWycUrhMn3EP/9c8OqU+OHj3q8z43t/oW8y+//JLo6kRkb3l5RMvTTb0LG23y8vDOu+9h3quvJnS/2dmNAXia77Vrq+9FtrKy0mfdkOU1dt9SOF1VBTXEZCqVlac8ZWZD1W1XGeIWSbB6qAFeAcDhw4fxww8/oF1+fthNt9meWyKhbtV4665fPxhBENCwofsWSWWIWyTVxxa6vFTSrNn5ya4CpYkmTXIAuEdY1Uf6qcuB6tvNANC4sfHP1WTK049SDGN5ugkZNurajMwTHpuIr77eFrAPRDRU7a/gWrRsCQA4ePDnAFu7Nz5wwN1p8ZJWlxjus2XLlhAEQJZkHD12NOA6kiThiCfpt7qklbYdAPz888GgZR886G5ubHlJy8ArqL5fSz/5BIDxrKH6U6SdjxD18DZ75jbL1YJEKN4yf/Y7x/5ltmrVKoxapoYbe/dOdhUoTXTs5O6c3ez8+hNQ9X02uvfo4fOZfs6iCz0d31NVr169cM+4cT7L7hk3Lm06iRrlBYOWjbqRNrp3746PNxYnrXMoUD2Mc8eO7e4F1RkD3gXffPMNAKBz586G5WVmNsBll7V2l7l9R8B1vvv2W8iSjCZNzkOLFi0AAB20egTeRl+Pjh07GdZDRfWQ12vDuIXiPeT27TtAFAUcPHAQ/zn+H/ieEPdXbz06dTI+H+76eo5t+/aAnzudTm1YcbhlpoLeffpgxG0j2cJBQTVpkoPrb7gBXbp0xW9btKg3nUNruu9+3+GvxRs3aq+vuPKKRFcnYi++9DJWr12HOX99EavXrkujzqGAUV4IORpFEIS0Hv4qCAKmTpuGRx6dkKA9emel9NezZ09kZGbgx//7ETt27kTnTr4X8oqfKvDVl1/CbDahT5++8P8N27/cvv364vvvv8fy5ctQ2L+/3+cfvP8+AKDfTTdpI0R69rwWmZ567NyxA518go2KAxUH8PVXX8FsMaN3nz4Gx+q+gH/xxRdo3LixFmSMqACa5uSgS5eu2LZtG5YvX45777vXp1xZkrBy5YcAgMLCQvieW/25EbTP+vbth7f/+TY2bNiAiY8/7jdB19o1q3HunB2tWl2CNnl5QY8p9JKwNou53n36GPx7EKWnNm3a4NoAjzcoLy+P6EFqfxw/Ht27d9fel+3ahW3bvgYAZGVloUuXrsE2TSm9evVKm9YMvVCjIgGDlg0xje+jDBw0CF9v+yaBQSO0BllZGDPmTgDAs888g59+8kyfqwJHjx7D45MmQVFU3PK73/s1923YsAFLiorw9Vdf6ZaqGDV6DBo2zMKWz7ZgwWuvaRPgqKqK9959B6tWrYLNZsW4cfdqW2VlZWHMnZ56TJ5cXQ+oOHr0GJ54/HEoiophw4bjggsu8DuOmtfVr776EvZzdvTo2UN7AFI4VAD3eybhWfDa37C5dLPWuOFwOPGnP03BgYoDaN26NW66+WbdVip27tiJJUVFWLN6DfStId2u6YbOXTrj5MmTePqpJ1FVVaXtb8f27ZgzZw4A4MGHHg5QGzXwARJRXD02cRLWrv/I78+Gf200fOwB4J5185nJkzFj5iyf5XPmzNZe//7WEWk1G2c6MsoLghqi6eKcwwFJMn74TTJ8uGIFxt45xm95bm4uXpg6DaPH+H8Wb8GeGeIlSRIeGP9HfL71c5hMIvLatoXJZEL5nnJIkoROnTrijTf/jswanbvGjBmN7d9sx+gxY/D0M0/7/JK/efNmPPrww3A6JeQ2y0WLFi1w+PBhHD50GGazCTNnzcLNhf396vHg+PHYunUrTCYRbdu2hWgyYW/5Xq0eC99YFLKTmeB5WPuM6dPx1tK38N/Tp2PwkJrTjht7df48vPa31wAAl1zSEk1ycvDDDz+g8lQlcnKa4B9FS3Bpjf4Vc+fOxcIFC5DXNg/Lli3XVwqHDh3CmNGjcfTIUTRo0ABt8trgTFUV9u37HgAwavQoPDN5sk958+fN8xleVllZiYMHDsJms+Ky1q215dmNsvH6okU1jkD1/kdEMbZ3714U3tTP7wGbTz8zWfs+Pnv2DBo08G3F/HTzZgwcUP1zb9v2HWit+15OVbIs48W/zkFZWRkKCgowcdLjaROSLBYzMkOMpAx5FKKQXoNV7rxzLF6YNg05OTlJrEXwWykWiwULFi7E2/98G6tWrcT+H/dDhYrLWl+GgQMHYtToMbCGmCNCK1739bprr8P7HyzD6wsX4ssvv8B3336Hxuc1RmFhIe65dxzatWun28B9y8FiMeNvCxbgnbf/iVWrVuFHTz0uvexSDBg4EKNGjQ45VwWgusdUC7qnvNZ4WmG4HnzoYXTo2BFvLV2Ksl1lOHTokHv68MFDcN/996NpJP+WKnDxRRdjxYoPsXDhQmwqKcHusjJkZGbi6m5X4/bb70C/m/rpTwUA4OCBg9pU53oOh9Nn+XnnBe7NzqBBFB95eXlYs3Yd+hfejFOnTgVcp2bQ+Pzzz3HbiFu19+MfeCAtggYADB40EFs++wyA+xfqTZs2Yf1HG5Jcq/AY5YWQLRuSLOOc3XiCqWTQt2y0ycvD1KnTYj7KpDYE37/it4/arhTkXzuiC6aq+kaqOB9vuKKtQa1Cg+dcEFH87Ni+HQMH9NdujepbNvS2bNmCW4YP0x7KVlBQgE2flAZ8MGOqWbVyJcaMHuW3fMnSt9LiMfOZGTZYQrTChIwiJjH1WzbiNZw1KuGMhY2y+EB/Il8p6GKDvQdaFHlJsRbskNUwPq9dzRkziBKhc5cuWLl6tV8rhteBigpMmvgYBg8coAWNNm3aYOXqNWkRNAAE7QwbSSfZZDLKC6E7iIqiYQ/TZPp448akDmcNxHe+rsRejIwuptFfYH37J/iUob1JzQtw7GvFjhpEiXTllVdh2YoVfuFh9qyZaF+Qjzdefx2y7O5jeMONN2L9ho/D6mCaKnrUmCPEaHkqEQQBYjRhAwBMptRs3Rg2fHjcnuIarWQGjvgJ3hHSpxuJCrg7dNSV4w6k+kTU5aMkSjU9evTA+x8sQ4bucQNHjhzRXufk5GDGzFn4cOUq5ObmJqOKtda2XTu89PIr2pD9rKwsvPTyK2ir9btLXeHkhJB9NgDA6ZRgD/GsCQrOp00ohVuIjIV/cQ14lEGecpu2PN8yDBpEyWG327XRco9PmojijRsx9q67cO999/vNr5NuZFnG9/v2ofXll6fNSJQMqxVWa+jBDYZhw6UoOHP2XEwrVt+kWkfKiERxYQ0ePKon4kovbNEgSjVHjhxJ+anI67qsBpmGfTYMwwYAVJ09C0Xhj9dopU9LR/UVNZb/6n5HLIT8NIXE53wQEaU7URTQsEEDw/XCaqMxm8xwKsEfZU7h8V6oBEBrMfDh0wSi1ngd79YANdCXeOzBZ4FQ841+Jb/zEei8+K0cI/4ngkGDiMiX2RTerZ6w1rKYTXBKDBuxEuyiJaiB1lADf615rdUKqfkmyFDVAB8l42KqBn0DXRipeQ4CrCyoQY/LN6cJ7qAXKJukwPkgIkonFnN4j6kIK2yYTCaIoghFUaKqFIUW0cWt5rU24PIak2/pPwnQkJCKwq5fgDyiPbbNmy1U7xnxzSbezdLhfBARpQpRFMN+JlbY41qtadIrtr4KNY9GqOV1WaBzoP8s0DpERBSeSHJB2GHDYmHYICIiIrdIckHYYUMQBOOHhBEREVGdZ7VYIpphPKLpQa1s3SAiIqr3Is0DEYUNURTZukFERFSPWS0Ww2eh1BTxg0+MpiQlIiKiuqs2OSDisCEKAmxWa8Q7IiIiovRms1oh1mIG7Fo90tVmjbwJhYiIiNKXKIqw1fLuRq0TQwZbN4iIiOqNaK77tQ4bZrOJnUWJiIjqAavFAnOYU5MHEtW9kAyb1fCxskRERJS+TKKIDFt0dzOiTgoZGbZoiyAiIqIUFYvrfNRhwySKyGTgICIiqnMyM2wxuYMRk3sgFrOZw2GJiIjqEJvVCkuMHsIasw4XNquFHUaJiIjqAKvFUuthroHEtHdnhs3Kp8MSERGlMYvFHHWH0JpiPpQk02Zj4CAiIkpDFosZmbbY98MUVFVVY14qALvDCackxaNoIiIiijGrxRLzFg2vuIUNAHA4JTiczngVT0RERDFgs1pj2kejpriGDQCQZBnn7I547oKIiIhqKTPDFrNRJ8HEPWwAgEtRYLc74FKUeO+KiIiIwmASRWTEaB4NIwkJG17sx0FERJR88eyfEUhCwwYAyLILdqcTCls5iIiIEkoURWRYrVE9VK02Eh42vNh5lIiIKHHi3Qk0lKSFDQBQVBVOp8RbK0RERHFitVhgtVogCkLS6pDUsOGlKAqckszQQUREFCNWiwVWixliAjqAGkmJsOGlqiokSYZTltmng4iIKEKiKMJqNsNiMUNIYktGTSkVNvRcLhck2QXZJUNRUrKKRERESSeKAswmMyxmE0ymxHb8DFfKhg09l6LAJbsgKy64XArSoMpERERxIQgCTCYRZtEEk9mUkHkyopUWYaMmRVHgUhQoigpFVaAqKhRV9YQQFel3RERERG7uux8CBEGAKAgQRAGiIEIUBZhEMSX6YEQqLcMGERERpY/0i0dERESUVhg2iIiIKK4YNoiIiCiuGDaIiIgorhg2iIiIKK4YNoiIiCiu/h89dWuiaNKj+AAAAABJRU5ErkJggg==;" vertex="1" parent="oLGlpNgKoRY46IaJrlE8-44">
          <mxGeometry x="12.75" y="210" width="247.25" height="50" as="geometry" />
        </mxCell>
        <mxCell id="oLGlpNgKoRY46IaJrlE8-105" style="edgeStyle=orthogonalEdgeStyle;rounded=0;orthogonalLoop=1;jettySize=auto;html=1;exitX=0.5;exitY=1;exitDx=0;exitDy=0;curved=1;" edge="1" parent="oLGlpNgKoRY46IaJrlE8-43" source="oLGlpNgKoRY46IaJrlE8-87" target="oLGlpNgKoRY46IaJrlE8-48">
          <mxGeometry relative="1" as="geometry" />
        </mxCell>
        <mxCell id="oLGlpNgKoRY46IaJrlE8-107" style="edgeStyle=orthogonalEdgeStyle;rounded=0;orthogonalLoop=1;jettySize=auto;html=1;entryX=0.5;entryY=1;entryDx=0;entryDy=0;curved=1;" edge="1" parent="1" source="oLGlpNgKoRY46IaJrlE8-6" target="oLGlpNgKoRY46IaJrlE8-34">
          <mxGeometry relative="1" as="geometry" />
        </mxCell>
        <mxCell id="oLGlpNgKoRY46IaJrlE8-121" value="&lt;font color=&quot;#ffffff&quot;&gt;When you log in&lt;/font&gt;" style="whiteSpace=wrap;html=1;shape=mxgraph.basic.cloud_callout;fillColor=#000000;" vertex="1" parent="1">
          <mxGeometry x="901" y="380" width="309" height="110" as="geometry" />
        </mxCell>
        <mxCell id="oLGlpNgKoRY46IaJrlE8-123" value="&lt;font color=&quot;#ffffff&quot;&gt;When you click on an exercise&lt;/font&gt;" style="whiteSpace=wrap;html=1;shape=mxgraph.basic.cloud_callout;fillColor=#000000;" vertex="1" parent="1">
          <mxGeometry x="911" y="1090" width="309" height="110" as="geometry" />
        </mxCell>
        <mxCell id="oLGlpNgKoRY46IaJrlE8-168" value="&lt;font color=&quot;#ffffff&quot;&gt;When you upload the picture&lt;/font&gt;" style="whiteSpace=wrap;html=1;shape=mxgraph.basic.cloud_callout;fillColor=#000000;" vertex="1" parent="1">
          <mxGeometry x="901" y="1730" width="309" height="110" as="geometry" />
        </mxCell>
        <mxCell id="oLGlpNgKoRY46IaJrlE8-230" value="" style="group" connectable="0" vertex="1" parent="1">
          <mxGeometry x="30" y="2480" width="821" height="869.38" as="geometry" />
        </mxCell>
        <mxCell id="oLGlpNgKoRY46IaJrlE8-231" value="" style="rounded=0;whiteSpace=wrap;html=1;strokeColor=default;gradientColor=default;fillColor=#000000;" vertex="1" parent="oLGlpNgKoRY46IaJrlE8-230">
          <mxGeometry y="66.09" width="830" height="573.91" as="geometry" />
        </mxCell>
        <mxCell id="oLGlpNgKoRY46IaJrlE8-232" value="" style="rounded=0;whiteSpace=wrap;html=1;fillColor=#0A0A0A;" vertex="1" parent="oLGlpNgKoRY46IaJrlE8-230">
          <mxGeometry x="270" y="130.62" width="560" height="509.38" as="geometry" />
        </mxCell>
        <mxCell id="oLGlpNgKoRY46IaJrlE8-233" value="&amp;nbsp; &amp;nbsp; &amp;nbsp; Logo / App name" style="html=1;shadow=0;dashed=0;fillColor=#000E17;strokeColor=default;fontSize=16;fontColor=#ffffff;align=left;spacing=15;" vertex="1" parent="oLGlpNgKoRY46IaJrlE8-230">
          <mxGeometry y="66.08773584905666" width="830" height="64.52830188679245" as="geometry" />
        </mxCell>
        <mxCell id="oLGlpNgKoRY46IaJrlE8-234" value="" style="shape=image;html=1;verticalAlign=top;verticalLabelPosition=bottom;labelBackgroundColor=#ffffff;imageAspect=0;aspect=fixed;image=https://cdn3.iconfinder.com/data/icons/essential-rounded/64/Rounded-31-128.png" vertex="1" parent="oLGlpNgKoRY46IaJrlE8-233">
          <mxGeometry x="668.3116883116883" y="10.464339622641509" width="38.12690476190476" height="38.12690476190476" as="geometry" />
        </mxCell>
        <mxCell id="oLGlpNgKoRY46IaJrlE8-235" value="&lt;font color=&quot;#ffffff&quot;&gt;Username&lt;/font&gt;" style="text;html=1;align=center;verticalAlign=middle;whiteSpace=wrap;rounded=0;" vertex="1" parent="oLGlpNgKoRY46IaJrlE8-233">
          <mxGeometry x="732.9883466249979" y="20.16509433962264" width="56.52667423382519" height="24.19811320754717" as="geometry" />
        </mxCell>
        <mxCell id="oLGlpNgKoRY46IaJrlE8-236" value="&lt;span style=&quot;font-family: sans-serif;&quot;&gt;&lt;font style=&quot;font-size: 20px;&quot; color=&quot;#f0f8ff&quot;&gt;Exercise name&lt;/font&gt;&lt;/span&gt;" style="text;html=1;align=left;verticalAlign=middle;whiteSpace=wrap;rounded=0;" vertex="1" parent="oLGlpNgKoRY46IaJrlE8-230">
          <mxGeometry x="60" y="161.5" width="210" height="30" as="geometry" />
        </mxCell>
        <mxCell id="oLGlpNgKoRY46IaJrlE8-246" value="" style="image;aspect=fixed;html=1;points=[];align=center;fontSize=12;image=img/lib/azure2/security/Identity_Secure_Score.svg;" vertex="1" parent="oLGlpNgKoRY46IaJrlE8-230">
          <mxGeometry x="480" y="260" width="118.38" height="130" as="geometry" />
        </mxCell>
        <mxCell id="oLGlpNgKoRY46IaJrlE8-247" value="&lt;font style=&quot;font-size: 19px;&quot; color=&quot;#ffffff&quot;&gt;Your Score&lt;/font&gt;" style="text;html=1;align=center;verticalAlign=middle;whiteSpace=wrap;rounded=0;" vertex="1" parent="oLGlpNgKoRY46IaJrlE8-230">
          <mxGeometry x="480" y="419.69" width="130" height="30" as="geometry" />
        </mxCell>
        <mxCell id="oLGlpNgKoRY46IaJrlE8-249" value="Reloud" style="rounded=1;fillColor=#0057D8;strokeColor=none;fontColor=#ffffff;align=center;verticalAlign=middle;fontStyle=0;fontSize=14;html=1;shadow=0;dashed=0;sketch=0;hachureGap=4;pointerEvents=0;fontFamily=Architects Daughter;fontSource=https%3A%2F%2Ffonts.googleapis.com%2Fcss%3Ffamily%3DArchitects%2BDaughter;" vertex="1" parent="oLGlpNgKoRY46IaJrlE8-230">
          <mxGeometry x="690" y="550" width="80" height="43" as="geometry" />
        </mxCell>
        <mxCell id="oLGlpNgKoRY46IaJrlE8-253" value="" style="html=1;verticalLabelPosition=bottom;align=center;labelBackgroundColor=#ffffff;verticalAlign=top;strokeWidth=2;strokeColor=#0080F0;shadow=0;dashed=0;shape=mxgraph.ios7.icons.back;" vertex="1" parent="oLGlpNgKoRY46IaJrlE8-230">
          <mxGeometry x="20" y="161.5" width="30" height="25.5" as="geometry" />
        </mxCell>
        <mxCell id="oLGlpNgKoRY46IaJrlE8-256" value="" style="shape=image;verticalLabelPosition=bottom;labelBackgroundColor=default;verticalAlign=top;aspect=fixed;imageAspect=0;image=data:image/png,iVBORw0KGgoAAAANSUhEUgAAAhsAAABtCAYAAAAIw6NIAAAABHNCSVQICAgIfAhkiAAAABl0RVh0U29mdHdhcmUAZ25vbWUtc2NyZWVuc2hvdO8Dvz4AAAAtdEVYdENyZWF0aW9uIFRpbWUAVGh1IDE0IE1hciAyMDI0IDAzOjQ2OjIyIFBNIEVFVHpJVPQAAByRSURBVHic7d15fBRVogXgU9VbQiBICG7MgCgSSNhdEFBUFg07OCOigOiIOrgiuKJPRph5rOMC+EZQnCHguAKyi0PCGBTcEFAC4aFPDMgmIxACdHdVV70/urtSnV6qO70n5/sJ6a6uunWrMKmTW/feElRVVUFEREQUJ2KyK0BERER1G8MGERERxRXDBhEREcUVwwYRERHFFcMGERERxRXDBhEREcWVOdkVqA1FUeBSFCiKCkVVoCoqFFWFexSvCg7mJSKidCUIACBAEASIggBBFCAKIkRRgEkUIYrp104gpMM8Gy5FgUt2QVZccLkUpEGViYiI4kIQBJhMIsyiCSazCaY0CB8pGzZcLhck2QXZJUNRUrKKRERESSeKAswmMyxmE0wmU7KrE1BKhQ1VVSFJMpyyDEVRkl0dIiKitCKKIqxmMywWMwT3/ZiUkBJhQ1EUOCUZTklKdlWIiIjqBKvFAqvFnBJ9PJIaNhRVhdMpMWQQERHFidVigdVqgZjElo6khQ2HU4LD6UzGromIiOodm9UKm9WSlH0nPGzIsgt2p5N9MoiIiBJMFEVkWK0wmxPbkTShYcPucPKWCRERUZJZLRZk2KwJ219CwoZLUWC3O+BiawYREVFKMIkiMjJsCZmnI+5hQ5JlnLM74rkLIiIiqqXMDBss5vhOKB7XsMFOoERERKkv3p1H4xY22D+DiIgofcSzH0dcwsY5hwOSJMe6WCIiIooji8WMTJst5uXGvFcIgwYREVF6kiQZ5xyx72cZ07BhdzgZNIiIiNKYJMmwO2Lb3zJmYcPBaceJiIjqBKckweGM3TU9JmFDkmWOOiEiIqpDHE4nJDk2dyuiDhsuReE8GkRERHXQuRhNyBl12LAzaBAREdVZsbjORxU27A4npyAnIiKqw1yKEnWH0VqHDVl2sUMoERFRPeCUJMiyq9bb1zps2NkhlIiIqN6I5rpfq7DhcEpQePuEiIio3lAUpdbDYSMOG4qqcpgrERFRPeRwOqHU4iknEYcNZwwn+SAiIqL0UpscEFHYUBSFnUKJiIjqMacUeVeKiMKGk889ISIiqvcizQNhhw1VVdmqkWYE3ddgf4iIiCLllCSoEfTdMIe7Ip/mGn/ei7/qeR3sayQFhlxf9f088i4/8eE9Vv3rcL5GQ18WEREZkyQZVqslrHXDDhvOGD2MhaoFu0AKnquevmUCAiCoujexuMT6bK6636red/ETsvaehYLu6i/U/OpZT/BUUhD0G6v+hQEIHFF0a6q+WzB0EBGF5pRjHDZcLhfn1YgBn4urYBAUAn0sGK0QDUH3pTp4RHvRDRYsBL8PaqwhGHwNsEmIhQYF1XyrauEDYPAgIgpEURS4XC6YTCbDdcMKG1IUU5RSoIyQ6r0lqoOH4LknF+kF1y8TBAoVKXsaBOjTFm+vEBEFJskxDBuyi7dQasP/+pqyV9fgPE0QQpi3V/yOMC3CVTDVoSNWLT1ERHWJOx9YDdczHI3iUhQoCn/ERso3X6T72A+jnqaBN3EHlXQ+bq/q46gLR0NUlxw5ciTZVajXFEUN6+nvxmGDt1AiVh006srFFvAGjmBdSbQjrVMhowYh+DkgosSx2+3a69mzZqJD+wLMmjkDp06dSmKtYkOWZZTv2QM5jQZlhJMTDMOGrDBsRMI3aCR2v7X5E/FealxsfVpw0vqWSbgYOIiSqXjjRsyfN1d7r6oqKn76CX/585/RPr8d5s2dG9H8D6nkzUWL0OI3zdHt6qvQ4jfN8eaiRcmuUljCyQnGLRuu1ByF8uGKFfjii8+TXY3AEnAlMgwNYaaLyEOH4P8qRW4V+Y14MfgT7Z4YOIgS618ff4wRt/7eZ96niy66SHtdWVmJ556djEED+uPYsWPJqGKtle/Zg8cmPIozZ84AAM6cOYPHJjyK8j17klwzY+HkhJBhQ1GUlE6IN/XtiynPP5/samgE378CkmUZRYsXY+RtI9C929W46sorMHzoULw6fx7OnT3rWxbCu1CWl5fjqaeeRJ/eN6JL587o1es6PPzQQ/jyiy/9S/MUIMsyFi9ejJEjb0P3a7rh6quuxC3DhuF/Xp2Ps7p6BDtQ/6DhtmP7dnQoKMCkiRNDl6FTXLwR9993L3pd2xNXdOmMm/v1w5Tnn8fBgwf9WlGMwoMA4MSJE5g9ayYGDRyAK6/oiu7dr8Ho0aOwbNkHUHVdPANtf/jQIdw99k50KCjA8KFDQ5wDRg2iRNqw4SOMvG2E3+2FJ558CnvK92LosGHask8//RQDCm/G8ePHE13NWtuyZUtEy1OJqqqG02OEDBvhdPpItpdfehFXXXkF1q9bl+yqeAS/CNntdtw19k7MnjUL5eXluKRVK+Tn5+Pgzwfx2t9ew4hbf4+TJ0/4XDiDFu/5+pHnG3DtmrVQVRWdu3RGo4aNsKlkE+75w91YumSJ34b2c+56zJk9G3tr1GPBawtw+20jcPLkiZDHGCxYbd5cCgC47rrrQmxfbeaMGZjwyKPY8tkWnNekCTp26gSH04Hly5bhluHDsGPnzohaIn7cvx/DhgxG0eIiHD9+HPkFBfjtb36Lb3fuxJTnp2DSxInuxyMHKHTVypW4ZfgwfP31tvB2xtspRAnx0UfrccfIkUH7MVzcvDmKlizF3PnztWGY+/btw5BBA+F0OhNZ1VrLzc2NaHmqMcoLBi0bqduqofe/e/di5G0j8PCDD+LXX39NSh3C6a7w8ksvYeeOnWjdujXWrV+Pd955F0VFS1BSsgnXXHMN9u//CX+aMqW6wFC/vgM4euwYnps8GbLswhNPPomNJZvw938sxtr16/HyK6/AZDJh1syZKC/f41ePHZ56rFm3Hm+/8y4WFxWhuLhEq8fUF14wPGAhwAFvLt0MQQB6Xntt6O3hbtFYumQJsrIaYNGbb2L16jX4x+LFKC7ZhD/ccw/OnT2HiRMehd3hCN7Uo1umAnji8Un49dcTKCwsxKZ/f4KiJUvx3gcfYPmHH+LCiy7Exxs+xtv/fMvnOOx2OyZMeBTPTp6MJjk5GHvXWMO6E1FirF+/DqNuvz2sDpNjx96FD1eugtnsntWhrKwM06Ya/CxLEUOGDkWPnj19lvXo2RNDQrWwphCjvBA6bKip37KhV1S0GFdd0VX323zqOHXqFN57910AwIyZM9H84ubaZ9mNszFr9mxYrRYUbyzGjz/+GKKk6ivt0qIi2O0O9OnTB2PvuguiWP3P2bdfP9x+xygoiopFb7zhU493PfWYPnMGmjdvrpWb3Tgb02fOhM1mRUlxCfbv3x+0BoFuIxw/fhzl5XvQtm07NGvWLOT5EAC8vnAhAODhRx5Bt2u6aeHBbDbhsYkTkZ+fj2PHfsGqlSt1Ow5UGbfNpaUo31OO3Ga5+Mv06chs0ED7rHXryzH52WcBAIveeMPzjeE+j8eOHcPGf23EoEGD8MGyZWjfvkPIugfcORHFXDhB49udO31u9/e6/nrM+etftffz5s5FRcVPca1nrKxesxbPPvcchg0fjmefew6r16xNdpXCZpQXQoYNNU1aNvSOHz+OBx8YjztuH4nv9+1L8N6DX3w+3bwZkiQhr20e2rZt67dJTtMcrTWguLgY+l/dx4wejfb5BZgxfYZPmcUlxQDgc69Sb6gnEZd+8on2zfrp5lJdPdr51b9p0xz06NkTgiBgU0lJGMdcbXNpKVQVuNbgFooAd6tM2a4yCAIwePAQvzUEQcCgwYPdx1m8EfqQNfeVuWifX4Df3XKLz3L3ekBhYX/YbDa//d5ww43IbpyNY8d+wa7vvtOWZ2RkYPqM6ZgxayaysrIiOmbeSiGKD2/QcLlCj3RYvPgfGNi/0KfP291/uAd9+/UD4O5PMH/evLjWNVbMZjOefOppLC5agiefelproUkHRnnBoGUj/cKG19o1a3DlFV0x95WXk10VAMDu3WUAgA4dPL81+/UZENCxY0cAQFnZLp/lgVRVVaHipwrfMmtok9cGNpsVZ86cxX5Pa0lZ2e6Q2+jr4a2z76e+r/S10/pr9OoVpOzq9XeXuctu0aIlGp/XGIG6v2rnY5d/PQLZbXBsoiiifUF7AMCuXdXn+PwLLsDgIbVtqmTUIIrG+D/ej8aNGvr9GTlihGHQANxh4rPPPsP48X/0WT5lyp+0195WZYofo7wQMjal8kiUcKiqiv967jmsW7sWL0ybhm7dronLfsLpr1FR4Q4GFzdvXuOT6g29Q7i863rdccco9OnTB/n5BdqyA551LBYLcoPcshBFE86/4AIcqDiAiooKtL78cq05sblfPapdcOGF7n0cOBB4BX1fCc//Ii6XjM+3bkWj7Ebo5AkJwTbTH+PFzS8OWg/v+Th58iROV1aiUXY2AHfn0+zsRsjJaeqzfjjHFuwc+9ewekkqfBeUFBdjU0kJfvklvYbzUWI0aZKDjp06okuXrmh2/vlo2rSp8UZ1hOC5pbti+XLcffcfcP0NNwAAOnbqhPYdOmDXd9/hxIkT2L17N/Lz85NY0/CUlpZib3k58tq2Ra8Qv7ilGqO8YNBGkwo/ZqO3detW3NS3LyY8NhEvTJ2alDpUnT4NAGjUsFHNcaOahg0bAQBOV572Wd5/wAC/8k57ymvYMEv7ZgukkbfM05UQAFSdrvLZV8htatQjlG+++QanT1fh5sJCiGE8lKeqynM+GgWvR0PdZ5WnT2tho0vXrujStavPuoqi4MyZs37b+ZfZEID7fMRMnBNJSXEx3nv3nfjtgNLeiRO/4pN//xsA0K6d+4JaXwKH/uff/PnztLABAL1799ZumW7b9nXKh42Jj03w6WN3z7hxePGl1GidNxbFbZQ0b9jwk8xhsg7P8CuLxRJ0HavV6lnXYVie07NOqPIEfZkOp0/Z0dUj0CgU9y2UXr3CG/LqrY+7HoHDkrceAOB0hD4nkm54WzjH5nSkx3A4ABH3naH669ud3wIAfkmzCa2ioZ/fYeeOHT6fXXrppdrrAxVBWmpTRGlpqU/QANyd2Us9P1tTnVFeMJxBtK7RD5NNJJv3IhdizLf3s4wAnRtrslrd60iSFHQdVVemLcPmqYd3u8jrEepOUeknpZ4hr+GFDZtNfz4C/1+qP1e2jIyQ5VltNm2AjBTGOfaej3TAWycUrhMn3EP/9c8OqU+OHj3q8z43t/oW8y+//JLo6kRkb3l5RMvTTb0LG23y8vDOu+9h3quvJnS/2dmNAXia77Vrq+9FtrKy0mfdkOU1dt9SOF1VBTXEZCqVlac8ZWZD1W1XGeIWSbB6qAFeAcDhw4fxww8/oF1+fthNt9meWyKhbtV4665fPxhBENCwofsWSWWIWyTVxxa6vFTSrNn5ya4CpYkmTXIAuEdY1Uf6qcuB6tvNANC4sfHP1WTK049SDGN5ugkZNurajMwTHpuIr77eFrAPRDRU7a/gWrRsCQA4ePDnAFu7Nz5wwN1p8ZJWlxjus2XLlhAEQJZkHD12NOA6kiThiCfpt7qklbYdAPz888GgZR886G5ubHlJy8ArqL5fSz/5BIDxrKH6U6SdjxD18DZ75jbL1YJEKN4yf/Y7x/5ltmrVKoxapoYbe/dOdhUoTXTs5O6c3ez8+hNQ9X02uvfo4fOZfs6iCz0d31NVr169cM+4cT7L7hk3Lm06iRrlBYOWjbqRNrp3746PNxYnrXMoUD2Mc8eO7e4F1RkD3gXffPMNAKBz586G5WVmNsBll7V2l7l9R8B1vvv2W8iSjCZNzkOLFi0AAB20egTeRl+Pjh07GdZDRfWQ12vDuIXiPeT27TtAFAUcPHAQ/zn+H/ieEPdXbz06dTI+H+76eo5t+/aAnzudTm1YcbhlpoLeffpgxG0j2cJBQTVpkoPrb7gBXbp0xW9btKg3nUNruu9+3+GvxRs3aq+vuPKKRFcnYi++9DJWr12HOX99EavXrkujzqGAUV4IORpFEIS0Hv4qCAKmTpuGRx6dkKA9emel9NezZ09kZGbgx//7ETt27kTnTr4X8oqfKvDVl1/CbDahT5++8P8N27/cvv364vvvv8fy5ctQ2L+/3+cfvP8+AKDfTTdpI0R69rwWmZ567NyxA518go2KAxUH8PVXX8FsMaN3nz4Gx+q+gH/xxRdo3LixFmSMqACa5uSgS5eu2LZtG5YvX45777vXp1xZkrBy5YcAgMLCQvieW/25EbTP+vbth7f/+TY2bNiAiY8/7jdB19o1q3HunB2tWl2CNnl5QY8p9JKwNou53n36GPx7EKWnNm3a4NoAjzcoLy+P6EFqfxw/Ht27d9fel+3ahW3bvgYAZGVloUuXrsE2TSm9evVKm9YMvVCjIgGDlg0xje+jDBw0CF9v+yaBQSO0BllZGDPmTgDAs888g59+8kyfqwJHjx7D45MmQVFU3PK73/s1923YsAFLiorw9Vdf6ZaqGDV6DBo2zMKWz7ZgwWuvaRPgqKqK9959B6tWrYLNZsW4cfdqW2VlZWHMnZ56TJ5cXQ+oOHr0GJ54/HEoiophw4bjggsu8DuOmtfVr776EvZzdvTo2UN7AFI4VAD3eybhWfDa37C5dLPWuOFwOPGnP03BgYoDaN26NW66+WbdVip27tiJJUVFWLN6DfStId2u6YbOXTrj5MmTePqpJ1FVVaXtb8f27ZgzZw4A4MGHHg5QGzXwARJRXD02cRLWrv/I78+Gf200fOwB4J5185nJkzFj5iyf5XPmzNZe//7WEWk1G2c6MsoLghqi6eKcwwFJMn74TTJ8uGIFxt45xm95bm4uXpg6DaPH+H8Wb8GeGeIlSRIeGP9HfL71c5hMIvLatoXJZEL5nnJIkoROnTrijTf/jswanbvGjBmN7d9sx+gxY/D0M0/7/JK/efNmPPrww3A6JeQ2y0WLFi1w+PBhHD50GGazCTNnzcLNhf396vHg+PHYunUrTCYRbdu2hWgyYW/5Xq0eC99YFLKTmeB5WPuM6dPx1tK38N/Tp2PwkJrTjht7df48vPa31wAAl1zSEk1ycvDDDz+g8lQlcnKa4B9FS3Bpjf4Vc+fOxcIFC5DXNg/Lli3XVwqHDh3CmNGjcfTIUTRo0ABt8trgTFUV9u37HgAwavQoPDN5sk958+fN8xleVllZiYMHDsJms+Ky1q215dmNsvH6okU1jkD1/kdEMbZ3714U3tTP7wGbTz8zWfs+Pnv2DBo08G3F/HTzZgwcUP1zb9v2HWit+15OVbIs48W/zkFZWRkKCgowcdLjaROSLBYzMkOMpAx5FKKQXoNV7rxzLF6YNg05OTlJrEXwWykWiwULFi7E2/98G6tWrcT+H/dDhYrLWl+GgQMHYtToMbCGmCNCK1739bprr8P7HyzD6wsX4ssvv8B3336Hxuc1RmFhIe65dxzatWun28B9y8FiMeNvCxbgnbf/iVWrVuFHTz0uvexSDBg4EKNGjQ45VwWgusdUC7qnvNZ4WmG4HnzoYXTo2BFvLV2Ksl1lOHTokHv68MFDcN/996NpJP+WKnDxRRdjxYoPsXDhQmwqKcHusjJkZGbi6m5X4/bb70C/m/rpTwUA4OCBg9pU53oOh9Nn+XnnBe7NzqBBFB95eXlYs3Yd+hfejFOnTgVcp2bQ+Pzzz3HbiFu19+MfeCAtggYADB40EFs++wyA+xfqTZs2Yf1HG5Jcq/AY5YWQLRuSLOOc3XiCqWTQt2y0ycvD1KnTYj7KpDYE37/it4/arhTkXzuiC6aq+kaqOB9vuKKtQa1Cg+dcEFH87Ni+HQMH9NdujepbNvS2bNmCW4YP0x7KVlBQgE2flAZ8MGOqWbVyJcaMHuW3fMnSt9LiMfOZGTZYQrTChIwiJjH1WzbiNZw1KuGMhY2y+EB/Il8p6GKDvQdaFHlJsRbskNUwPq9dzRkziBKhc5cuWLl6tV8rhteBigpMmvgYBg8coAWNNm3aYOXqNWkRNAAE7QwbSSfZZDLKC6E7iIqiYQ/TZPp448akDmcNxHe+rsRejIwuptFfYH37J/iUob1JzQtw7GvFjhpEiXTllVdh2YoVfuFh9qyZaF+Qjzdefx2y7O5jeMONN2L9ho/D6mCaKnrUmCPEaHkqEQQBYjRhAwBMptRs3Rg2fHjcnuIarWQGjvgJ3hHSpxuJCrg7dNSV4w6k+kTU5aMkSjU9evTA+x8sQ4bucQNHjhzRXufk5GDGzFn4cOUq5ObmJqOKtda2XTu89PIr2pD9rKwsvPTyK2ir9btLXeHkhJB9NgDA6ZRgD/GsCQrOp00ohVuIjIV/cQ14lEGecpu2PN8yDBpEyWG327XRco9PmojijRsx9q67cO999/vNr5NuZFnG9/v2ofXll6fNSJQMqxVWa+jBDYZhw6UoOHP2XEwrVt+kWkfKiERxYQ0ePKon4kovbNEgSjVHjhxJ+anI67qsBpmGfTYMwwYAVJ09C0Xhj9dopU9LR/UVNZb/6n5HLIT8NIXE53wQEaU7URTQsEEDw/XCaqMxm8xwKsEfZU7h8V6oBEBrMfDh0wSi1ngd79YANdCXeOzBZ4FQ841+Jb/zEei8+K0cI/4ngkGDiMiX2RTerZ6w1rKYTXBKDBuxEuyiJaiB1lADf615rdUKqfkmyFDVAB8l42KqBn0DXRipeQ4CrCyoQY/LN6cJ7qAXKJukwPkgIkonFnN4j6kIK2yYTCaIoghFUaKqFIUW0cWt5rU24PIak2/pPwnQkJCKwq5fgDyiPbbNmy1U7xnxzSbezdLhfBARpQpRFMN+JlbY41qtadIrtr4KNY9GqOV1WaBzoP8s0DpERBSeSHJB2GHDYmHYICIiIrdIckHYYUMQBOOHhBEREVGdZ7VYIpphPKLpQa1s3SAiIqr3Is0DEYUNURTZukFERFSPWS0Ww2eh1BTxg0+MpiQlIiKiuqs2OSDisCEKAmxWa8Q7IiIiovRms1oh1mIG7Fo90tVmjbwJhYiIiNKXKIqw1fLuRq0TQwZbN4iIiOqNaK77tQ4bZrOJnUWJiIjqAavFAnOYU5MHEtW9kAyb1fCxskRERJS+TKKIDFt0dzOiTgoZGbZoiyAiIqIUFYvrfNRhwySKyGTgICIiqnMyM2wxuYMRk3sgFrOZw2GJiIjqEJvVCkuMHsIasw4XNquFHUaJiIjqAKvFUuthroHEtHdnhs3Kp8MSERGlMYvFHHWH0JpiPpQk02Zj4CAiIkpDFosZmbbY98MUVFVVY14qALvDCackxaNoIiIiijGrxRLzFg2vuIUNAHA4JTiczngVT0RERDFgs1pj2kejpriGDQCQZBnn7I547oKIiIhqKTPDFrNRJ8HEPWwAgEtRYLc74FKUeO+KiIiIwmASRWTEaB4NIwkJG17sx0FERJR88eyfEUhCwwYAyLILdqcTCls5iIiIEkoURWRYrVE9VK02Eh42vNh5lIiIKHHi3Qk0lKSFDQBQVBVOp8RbK0RERHFitVhgtVogCkLS6pDUsOGlKAqckszQQUREFCNWiwVWixliAjqAGkmJsOGlqiokSYZTltmng4iIKEKiKMJqNsNiMUNIYktGTSkVNvRcLhck2QXZJUNRUrKKRERESSeKAswmMyxmE0ymxHb8DFfKhg09l6LAJbsgKy64XArSoMpERERxIQgCTCYRZtEEk9mUkHkyopUWYaMmRVHgUhQoigpFVaAqKhRV9YQQFel3RERERG7uux8CBEGAKAgQRAGiIEIUBZhEMSX6YEQqLcMGERERpY/0i0dERESUVhg2iIiIKK4YNoiIiCiuGDaIiIgorhg2iIiIKK4YNoiIiCiu/h89dWuiaNKj+AAAAABJRU5ErkJggg==;" vertex="1" parent="oLGlpNgKoRY46IaJrlE8-230">
          <mxGeometry x="17.75" y="210" width="247.25" height="50" as="geometry" />
        </mxCell>
        <mxCell id="oLGlpNgKoRY46IaJrlE8-245" value="&lt;font color=&quot;#ffffff&quot;&gt;When you click the submit button&lt;/font&gt;" style="whiteSpace=wrap;html=1;shape=mxgraph.basic.cloud_callout;fillColor=#000000;" vertex="1" parent="1">
          <mxGeometry x="890" y="2420" width="309" height="110" as="geometry" />
        </mxCell>
        <mxCell id="oLGlpNgKoRY46IaJrlE8-257" style="edgeStyle=orthogonalEdgeStyle;rounded=0;orthogonalLoop=1;jettySize=auto;html=1;exitX=0.25;exitY=1;exitDx=0;exitDy=0;entryX=0.488;entryY=0.037;entryDx=0;entryDy=0;entryPerimeter=0;" edge="1" parent="1" source="oLGlpNgKoRY46IaJrlE8-155" target="oLGlpNgKoRY46IaJrlE8-233">
          <mxGeometry relative="1" as="geometry" />
        </mxCell>
      </root>
    </mxGraphModel>
  </diagram>
</mxfile>
